<svg id="Grupo_32" data-name="Grupo 32" xmlns="http://www.w3.org/2000/svg" width="16.031" height="16.408" viewBox="0 0 16.031 16.408">
  <path id="Trazado_433" data-name="Trazado 433" d="M14.734,23.105a7.362,7.362,0,1,1,14.723,0,.385.385,0,0,1-.385.385H15.118a.385.385,0,0,1-.385-.385Zm12.426-8.34a.385.385,0,1,1,0-.769h1.225V12.77a.385.385,0,0,1,.769,0V14H30.38a.385.385,0,1,1,0,.769H29.155V15.99a.385.385,0,0,1-.769,0V14.765ZM22.1,7.081a3.62,3.62,0,1,1-2.56,1.06A3.611,3.611,0,0,1,22.1,7.081Zm2.016,1.6a2.851,2.851,0,1,0,.835,2.016A2.843,2.843,0,0,0,24.112,8.685Zm-6.677,9.758a6.57,6.57,0,0,0-1.92,4.277H28.678a6.593,6.593,0,0,0-11.243-4.277Z" transform="translate(-14.734 -7.081)" fill="#93938e"/>
</svg>