<svg id="Grupo_782" data-name="Grupo 782" xmlns="http://www.w3.org/2000/svg" xmlns:xlink="http://www.w3.org/1999/xlink" width="17.38" height="24.38" viewBox="0 0 17.38 24.38">
  <defs>
    <clipPath id="clip-path">
      <rect id="Rectángulo_743" data-name="Rectángulo 743" width="17.38" height="24.38" transform="translate(0 0)" fill="#4a4a4a"/>
    </clipPath>
  </defs>
  <g id="Grupo_781" data-name="Grupo 781" transform="translate(0 0)" clip-path="url(#clip-path)">
    <path id="Trazado_13830" data-name="Trazado 13830" d="M15.1,9.253h-.8V5.608a5.607,5.607,0,1,0-11.215,0V9.253h-.8A2.284,2.284,0,0,0,0,11.534V22.1A2.284,2.284,0,0,0,2.282,24.38H15.1A2.284,2.284,0,0,0,17.38,22.1V11.534A2.284,2.284,0,0,0,15.1,9.253M4.428,5.608a4.262,4.262,0,1,1,8.523,0V9.253H4.428ZM16.034,22.1a.937.937,0,0,1-.936.936H2.282a.937.937,0,0,1-.936-.936V11.534a.937.937,0,0,1,.936-.936H15.1a.937.937,0,0,1,.936.936V22.1" transform="translate(0 0)" fill="#4a4a4a"/>
  </g>
</svg>
