<svg xmlns="http://www.w3.org/2000/svg" width="356.49" height="184.153" viewBox="0 0 356.49 184.153">
  <g id="Grupo_5" data-name="Grupo 5" transform="translate(-903.482 -219)">
    <text id="_365" data-name="365" transform="translate(1147.972 329)" fill="none" stroke="#242424" stroke-width="2" font-size="117" font-family="ProximaNova-Black, Proxima Nova" font-weight="800"><tspan x="-109.278" y="0">365</tspan></text>
    <g id="Grupo_4" data-name="Grupo 4" transform="translate(903.482 226.128)">
      <path id="Trazado_12" data-name="Trazado 12" d="M103.5,0c17.881,0,28.9,8.816,34.9,18.981l-17.635,9.31A20.294,20.294,0,0,0,103.5,18.614c-13.348,0-22.781,10.288-22.781,23.639S90.147,65.889,103.5,65.889c6.369,0,12.125-2.2,15.431-4.9V54.133H100.19V36.62h39.435V68.585A47.2,47.2,0,0,1,103.5,84.506c-24.372,0-44.212-16.289-44.212-42.253S79.123,0,103.5,0" transform="translate(-59.283)" fill="#c39400"/>
      <path id="Trazado_13" data-name="Trazado 13" d="M89.118,82.127V.439h59.888V18.2H110.181V31.791h37.969V49.672H110.181v14.7h38.825V82.127Z" transform="translate(2.37 0.908)" fill="#c39400"/>
      <path id="Trazado_14" data-name="Trazado 14" d="M112.243,82.13V.439h34.289c25.715,0,44.209,15.431,44.209,40.784S172.248,82.13,146.655,82.13Zm21.064-18.371h13.226c14.33,0,22.655-10.411,22.655-22.536,0-12.612-7.593-22.413-22.532-22.413H133.307Z" transform="translate(-108.369 94.895)" fill="#c39400"/>
      <path id="Trazado_15" data-name="Trazado 15" d="M140.878,82.127V.439h59.888V18.2H161.942V31.791h37.969V49.672H161.942v14.7h38.825V82.127Z" transform="translate(-49.195 94.895)" fill="#c39400"/>
      <path id="Trazado_16" data-name="Trazado 16" d="M185.389,82.127V18.808h-22.9V.439h66.748V18.808H206.452v63.32Z" transform="translate(-4.545 94.895)" fill="#c39400"/>
    </g>
  </g>
</svg>
