<?xml version="1.0" encoding="UTF-8"?>
<!DOCTYPE svg PUBLIC "-//W3C//DTD SVG 1.1//EN" "http://www.w3.org/Graphics/SVG/1.1/DTD/svg11.dtd">
<svg version="1.2" width="151mm" height="19.9mm" viewBox="0 0 15100 1990" preserveAspectRatio="xMidYMid" fill-rule="evenodd" stroke-width="28.222" stroke-linejoin="round" xmlns="http://www.w3.org/2000/svg" xmlns:ooo="http://xml.openoffice.org/svg/export" xmlns:xlink="http://www.w3.org/1999/xlink" xmlns:presentation="http://sun.com/xmlns/staroffice/presentation" xmlns:smil="http://www.w3.org/2001/SMIL20/" xmlns:anim="urn:oasis:names:tc:opendocument:xmlns:animation:1.0" xmlns:svg="urn:oasis:names:tc:opendocument:xmlns:svg-compatible:1.0" xml:space="preserve">
 <defs class="ClipPathGroup">
  <clipPath id="presentation_clip_path" clipPathUnits="userSpaceOnUse">
   <rect x="0" y="0" width="15100" height="1990"/>
  </clipPath>
  <clipPath id="presentation_clip_path_shrink" clipPathUnits="userSpaceOnUse">
   <rect x="15" y="1" width="15070" height="1987"/>
  </clipPath>
 </defs>
 <defs class="TextShapeIndex">
  <g ooo:slide="id1" ooo:id-list="id3 id4 id5 id6 id7 id8"/>
 </defs>
 <defs class="EmbeddedBulletChars">
  <g id="bullet-char-template-57356" transform="scale(0.00048828125,-0.00048828125)">
   <path d="M 580,1141 L 1163,571 580,0 -4,571 580,1141 Z"/>
  </g>
  <g id="bullet-char-template-57354" transform="scale(0.00048828125,-0.00048828125)">
   <path d="M 8,1128 L 1137,1128 1137,0 8,0 8,1128 Z"/>
  </g>
  <g id="bullet-char-template-10146" transform="scale(0.00048828125,-0.00048828125)">
   <path d="M 174,0 L 602,739 174,1481 1456,739 174,0 Z M 1358,739 L 309,1346 659,739 1358,739 Z"/>
  </g>
  <g id="bullet-char-template-10132" transform="scale(0.00048828125,-0.00048828125)">
   <path d="M 2015,739 L 1276,0 717,0 1260,543 174,543 174,936 1260,936 717,1481 1274,1481 2015,739 Z"/>
  </g>
  <g id="bullet-char-template-10007" transform="scale(0.00048828125,-0.00048828125)">
   <path d="M 0,-2 C -7,14 -16,27 -25,37 L 356,567 C 262,823 215,952 215,954 215,979 228,992 255,992 264,992 276,990 289,987 310,991 331,999 354,1012 L 381,999 492,748 772,1049 836,1024 860,1049 C 881,1039 901,1025 922,1006 886,937 835,863 770,784 769,783 710,716 594,584 L 774,223 C 774,196 753,168 711,139 L 727,119 C 717,90 699,76 672,76 641,76 570,178 457,381 L 164,-76 C 142,-110 111,-127 72,-127 30,-127 9,-110 8,-76 1,-67 -2,-52 -2,-32 -2,-23 -1,-13 0,-2 Z"/>
  </g>
  <g id="bullet-char-template-10004" transform="scale(0.00048828125,-0.00048828125)">
   <path d="M 285,-33 C 182,-33 111,30 74,156 52,228 41,333 41,471 41,549 55,616 82,672 116,743 169,778 240,778 293,778 328,747 346,684 L 369,508 C 377,444 397,411 428,410 L 1163,1116 C 1174,1127 1196,1133 1229,1133 1271,1133 1292,1118 1292,1087 L 1292,965 C 1292,929 1282,901 1262,881 L 442,47 C 390,-6 338,-33 285,-33 Z"/>
  </g>
  <g id="bullet-char-template-9679" transform="scale(0.00048828125,-0.00048828125)">
   <path d="M 813,0 C 632,0 489,54 383,161 276,268 223,411 223,592 223,773 276,916 383,1023 489,1130 632,1184 813,1184 992,1184 1136,1130 1245,1023 1353,916 1407,772 1407,592 1407,412 1353,268 1245,161 1136,54 992,0 813,0 Z"/>
  </g>
  <g id="bullet-char-template-8226" transform="scale(0.00048828125,-0.00048828125)">
   <path d="M 346,457 C 273,457 209,483 155,535 101,586 74,649 74,723 74,796 101,859 155,911 209,963 273,989 346,989 419,989 480,963 531,910 582,859 608,796 608,723 608,648 583,586 532,535 482,483 420,457 346,457 Z"/>
  </g>
  <g id="bullet-char-template-8211" transform="scale(0.00048828125,-0.00048828125)">
   <path d="M -4,459 L 1135,459 1135,606 -4,606 -4,459 Z"/>
  </g>
  <g id="bullet-char-template-61548" transform="scale(0.00048828125,-0.00048828125)">
   <path d="M 173,740 C 173,903 231,1043 346,1159 462,1274 601,1332 765,1332 928,1332 1067,1274 1183,1159 1299,1043 1357,903 1357,740 1357,577 1299,437 1183,322 1067,206 928,148 765,148 601,148 462,206 346,322 231,437 173,577 173,740 Z"/>
  </g>
 </defs>
 <g>
  <g id="id2" class="Master_Slide">
   <g id="bg-id2" class="Background"/>
   <g id="bo-id2" class="BackgroundObjects"/>
  </g>
 </g>
 <g class="SlideGroup">
  <g>
   <g id="container-id1">
    <g id="id1" class="Slide" clip-path="url(#presentation_clip_path)">
     <g class="Page">
      <g class="Group">
       <g class="com.sun.star.drawing.ClosedBezierShape">
        <g id="id3">
         <rect class="BoundingBox" stroke="none" fill="none" x="337" y="418" width="1064" height="1225"/>
         <path fill="rgb(255,255,255)" stroke="none" d="M 624,453 C 480,513 413,594 413,714 413,848 487,922 586,890 681,862 709,767 642,696 564,608 579,523 677,499 801,467 868,502 910,615 981,802 942,876 737,954 399,1079 261,1290 378,1505 452,1643 773,1675 875,1555 907,1512 928,1516 1002,1576 1118,1664 1192,1664 1309,1572 1369,1523 1400,1467 1400,1396 1400,1269 1337,1262 1323,1389 1316,1438 1295,1488 1273,1495 1245,1505 1228,1382 1221,1089 1206,622 1178,559 952,464 822,407 748,404 624,453 Z M 942,1195 C 942,1505 801,1646 677,1456 568,1290 698,978 871,978 935,978 942,1001 942,1195 Z"/>
        </g>
       </g>
       <g class="com.sun.star.drawing.ClosedBezierShape">
        <g id="id4">
         <rect class="BoundingBox" stroke="none" fill="none" x="3022" y="419" width="1166" height="1194"/>
         <path fill="rgb(255,255,255)" stroke="none" d="M 3626,464 C 3580,488 3520,548 3496,594 3450,679 3450,679 3446,562 3446,524 3446,486 3446,449 3375,449 3305,449 3235,449 3118,449 3023,464 3023,485 3023,502 3055,520 3093,520 3160,520 3164,545 3164,1029 3164,1516 3160,1541 3093,1541 3055,1541 3023,1555 3023,1576 3023,1597 3136,1611 3287,1611 3439,1611 3552,1597 3552,1576 3552,1555 3527,1541 3499,1541 3457,1541 3446,1477 3446,1177 3446,746 3524,520 3668,520 3781,520 3799,587 3799,1086 3799,1474 3795,1498 3721,1551 3644,1604 3654,1608 3915,1608 4074,1611 4187,1597 4187,1576 4187,1555 4162,1541 4134,1541 4092,1541 4081,1474 4081,1139 4081,682 4042,538 3901,467 3781,404 3735,404 3626,464 Z"/>
        </g>
       </g>
       <g class="com.sun.star.drawing.ClosedBezierShape">
        <g id="id5">
         <rect class="BoundingBox" stroke="none" fill="none" x="5844" y="425" width="1082" height="1213"/>
         <path fill="rgb(255,255,255)" stroke="none" d="M 6108,467 C 5971,541 5914,619 5914,735 5914,901 6087,968 6175,830 6203,784 6196,753 6144,696 6059,605 6105,509 6242,492 6359,478 6454,612 6436,774 6426,873 6405,897 6285,943 5883,1093 5748,1301 5914,1512 6002,1629 6165,1661 6320,1597 6426,1551 6454,1551 6546,1597 6733,1689 6860,1618 6916,1389 6948,1258 6884,1266 6835,1400 6764,1611 6726,1512 6726,1117 6726,904 6708,696 6683,647 6599,460 6299,365 6108,467 Z M 6429,1421 C 6405,1516 6285,1562 6214,1505 6126,1435 6147,1146 6242,1057 6394,922 6426,936 6436,1149 6443,1255 6440,1378 6429,1421 Z"/>
        </g>
       </g>
       <g class="com.sun.star.drawing.ClosedBezierShape">
        <g id="id6">
         <rect class="BoundingBox" stroke="none" fill="none" x="8554" y="418" width="881" height="1210"/>
         <path fill="rgb(255,255,255)" stroke="none" d="M 8933,449 C 8636,538 8470,954 8597,1283 8696,1544 8982,1692 9208,1597 9338,1544 9455,1368 9430,1266 9423,1227 9398,1255 9356,1350 9285,1516 9165,1590 9042,1544 8911,1495 8869,1340 8883,964 8890,675 8904,615 8971,552 9070,449 9229,481 9229,605 9229,650 9204,707 9176,732 9105,791 9109,929 9179,957 9278,996 9405,883 9405,763 9405,612 9345,520 9211,464 9077,407 9074,407 8933,449 Z"/>
        </g>
       </g>
       <g class="com.sun.star.drawing.ClosedBezierShape">
        <g id="id7">
         <rect class="BoundingBox" stroke="none" fill="none" x="11173" y="434" width="963" height="1193"/>
         <path fill="rgb(255,255,255)" stroke="none" d="M 11464,485 C 11249,590 11157,781 11175,1068 11196,1403 11394,1632 11662,1625 11940,1618 12134,1361 12134,1008 12131,583 11796,319 11464,485 Z M 11746,538 C 11849,643 11866,1322 11767,1505 11715,1604 11605,1593 11531,1484 11485,1410 11471,1311 11471,1029 11471,748 11485,650 11531,576 11602,474 11669,460 11746,538 Z"/>
        </g>
       </g>
       <g class="com.sun.star.drawing.ClosedBezierShape">
        <g id="id8">
         <rect class="BoundingBox" stroke="none" fill="none" x="13849" y="429" width="848" height="1200"/>
         <path fill="rgb(255,255,255)" stroke="none" d="M 14095,439 C 13961,488 13884,605 13884,746 13887,933 13954,1012 14254,1181 14508,1325 14572,1417 14483,1526 14381,1646 14169,1555 14021,1322 13961,1230 13898,1163 13880,1174 13845,1195 13838,1505 13870,1593 13891,1643 13898,1639 13944,1576 13990,1512 14004,1509 14088,1555 14413,1717 14695,1590 14695,1280 14695,1156 14582,1036 14342,911 14011,735 13926,520 14180,492 14275,481 14441,615 14543,784 14579,844 14586,823 14586,643 14586,527 14575,453 14565,474 14547,527 14441,534 14395,488 14349,446 14159,414 14095,439 Z"/>
        </g>
       </g>
      </g>
     </g>
    </g>
   </g>
  </g>
 </g>
</svg>