<svg xmlns="http://www.w3.org/2000/svg" width="300" height="139" viewBox="0 0 300 139">
  <g id="Grupo_796" data-name="Grupo 796" transform="translate(4055 3521)">
    <path id="Trazado_13937" data-name="Trazado 13937" d="M69.194,32.334a.536.536,0,0,0,.584-.478,29.726,29.726,0,0,1,1.029-3.539h4.8q.746,2.07,1.162,3.505a.7.7,0,0,0,.715.512.673.673,0,0,0,.762-.76.786.786,0,0,0-.057-.29,71.642,71.642,0,0,0-3.874-9.641c-.349-.7-.66-1.058-.94-1.058-.155,0-.375.243-.665.728-.214.36-.474.878-.785,1.558-.231.512-.445,1-.643,1.45Q70.653,25.733,70,27.491q-.537,1.387-.906,2.453l-.483,1.613-.023.169a.538.538,0,0,0,.61.607m2.688-6.913q.7-1.734,1.331-2.944,1.064,2.254,2.07,4.942H71.12q.359-1,.762-2" transform="translate(-3978.414 -3498.015)" fill="#fff"/>
    <path id="Trazado_13938" data-name="Trazado 13938" d="M78.686,32.393a5.851,5.851,0,0,0,2.335-.474,4.873,4.873,0,0,0,1.587-1.05,1.669,1.669,0,0,0,.58-1.092.434.434,0,0,0-.131-.288.358.358,0,0,0-.258-.144.709.709,0,0,0-.519.337,5.192,5.192,0,0,0-.4.561A3.237,3.237,0,0,1,80.6,31.1a4.475,4.475,0,0,1-1.659.32,3.645,3.645,0,0,1-2.953-1.355A5.4,5.4,0,0,1,74.87,26.5a5.765,5.765,0,0,1,1.1-3.617,3.394,3.394,0,0,1,2.783-1.435,3.5,3.5,0,0,1,1.748.449,5.314,5.314,0,0,1,.931.739.71.71,0,0,0,.521.216.659.659,0,0,0,.745-.747.712.712,0,0,0-.3-.6,3.812,3.812,0,0,0-1.257-.538,7.71,7.71,0,0,0-2.119-.328,5.453,5.453,0,0,0-4.13,1.7,5.993,5.993,0,0,0-1.613,4.307,5.9,5.9,0,0,0,1.395,4.075,5.087,5.087,0,0,0,4.011,1.67" transform="translate(-3973.17 -3497.951)" fill="#fff"/>
    <path id="Trazado_13939" data-name="Trazado 13939" d="M78.707,32.334a.537.537,0,0,0,.586-.478,29.723,29.723,0,0,1,1.029-3.539h4.8q.746,2.07,1.164,3.505a.692.692,0,0,0,.713.512.673.673,0,0,0,.762-.76.786.786,0,0,0-.057-.29,72.193,72.193,0,0,0-3.871-9.641q-.524-1.057-.942-1.058c-.155,0-.375.243-.665.728-.214.36-.474.878-.785,1.558-.233.512-.444,1-.643,1.45q-.622,1.413-1.283,3.171-.537,1.387-.906,2.453-.038.137-.483,1.613l-.023.169a.538.538,0,0,0,.607.607m2.69-6.913q.7-1.734,1.331-2.944,1.067,2.254,2.07,4.942H80.636q.359-1,.762-2" transform="translate(-3967.788 -3498.015)" fill="#fff"/>
    <path id="Trazado_13940" data-name="Trazado 13940" d="M83.717,32.208h2.335a6.85,6.85,0,0,0,4.6-1.452,5.173,5.173,0,0,0,1.772-4.17,5.7,5.7,0,0,0-1.636-4.324A6.283,6.283,0,0,0,86.266,20.7l-2.591.008a.608.608,0,0,0-.648.688V31.51a.613.613,0,0,0,.69.7m.688-8.865a3.013,3.013,0,0,1,.29-1.547q.232-.3,1.1-.3a5.879,5.879,0,0,1,3.145.745,3.8,3.8,0,0,1,1.5,1.861,6.633,6.633,0,0,1,.379,2.369,4.9,4.9,0,0,1-1.461,3.842,4.717,4.717,0,0,1-3.274,1.122,2.165,2.165,0,0,1-1.346-.288,1.527,1.527,0,0,1-.33-1.09Z" transform="translate(-3962.286 -3497.888)" fill="#fff"/>
    <path id="Trazado_13941" data-name="Trazado 13941" d="M88.874,32.208h6.667a.746.746,0,1,0,0-1.492.812.812,0,0,0-.328.072,5.252,5.252,0,0,1-2.608.506h-1.74c-.546,0-.893-.087-1.044-.265a1.518,1.518,0,0,1-.224-.923l-.008-3.689h4.724a.473.473,0,1,0,0-.946H89.589V22.535a1.072,1.072,0,0,1,.337-.851c.034-.021.072-.042.112-.063a11.766,11.766,0,0,1,1.486-.074,8.92,8.92,0,0,1,2.013.161,6.113,6.113,0,0,1,1.13.466.8.8,0,0,0,.313.063.77.77,0,1,0,0-1.539H88.867a.624.624,0,0,0-.713.7L88.16,31.51a.624.624,0,0,0,.713.7" transform="translate(-3956.561 -3497.888)" fill="#fff"/>
    <path id="Trazado_13942" data-name="Trazado 13942" d="M92.867,32.208a.446.446,0,0,0,.489-.425l.008-8.261,3.586,6.907a.642.642,0,0,0,.428.337.75.75,0,0,0,.207.032.6.6,0,0,0,.546-.36l.015-.017q1.029-2.229,3.16-6.826v7.918a.619.619,0,0,0,.707.7.627.627,0,0,0,.69-.6l.006-10.2a.614.614,0,0,0-.7-.7.653.653,0,0,0-.65.432l-3.617,7.9-4-7.942a.7.7,0,0,0-.466-.366,1.106,1.106,0,0,0-.265-.034c-.32,0-.527.186-.622.561l-.025,10.461a.435.435,0,0,0,.5.489" transform="translate(-3951.851 -3497.888)" fill="#fff"/>
    <path id="Trazado_13943" data-name="Trazado 13943" d="M98.7,32.393a.622.622,0,0,0,.673-.618h.008V21.354q0-.714-.682-.713c-.453,0-.682.237-.682.713V31.679c0,.474.229.713.682.713" transform="translate(-3945.542 -3497.951)" fill="#fff"/>
    <path id="Trazado_13944" data-name="Trazado 13944" d="M99.746,32.334a.538.538,0,0,0,.586-.478,29.328,29.328,0,0,1,1.029-3.539h4.8q.746,2.07,1.162,3.505a.692.692,0,0,0,.713.512.674.674,0,0,0,.764-.76.785.785,0,0,0-.057-.29,71.917,71.917,0,0,0-3.873-9.641c-.349-.7-.66-1.058-.94-1.058-.155,0-.375.243-.665.728-.214.36-.474.878-.787,1.558-.231.512-.442,1-.641,1.45-.415.942-.847,2-1.283,3.171q-.537,1.387-.906,2.453-.041.137-.483,1.613l-.025.169a.539.539,0,0,0,.61.607m2.69-6.913q.7-1.734,1.329-2.944,1.07,2.254,2.07,4.942h-4.163q.362-1,.764-2" transform="translate(-3944.298 -3498.015)" fill="#fff"/>
    <path id="Trazado_13945" data-name="Trazado 13945" d="M106.709,32.208h6.665a.746.746,0,1,0,0-1.492.809.809,0,0,0-.326.072,5.252,5.252,0,0,1-2.608.506H108.7c-.546,0-.9-.087-1.044-.265a1.5,1.5,0,0,1-.224-.923l-.011-3.689h4.727a.473.473,0,1,0,0-.946h-4.727V22.535a1.072,1.072,0,0,1,.339-.851,1.059,1.059,0,0,1,.112-.063,11.7,11.7,0,0,1,1.484-.074,8.941,8.941,0,0,1,2.015.161,6.043,6.043,0,0,1,1.128.466.812.812,0,0,0,.313.063.77.77,0,1,0,0-1.539H106.7a.625.625,0,0,0-.715.7L106,31.51a.625.625,0,0,0,.713.7" transform="translate(-3936.648 -3497.888)" fill="#fff"/>
    <path id="Trazado_13946" data-name="Trazado 13946" d="M111.661,31.855a5.041,5.041,0,0,0,2.392.538,4.717,4.717,0,0,0,1.676-.337,4.264,4.264,0,0,0,1.725-1.154,3.2,3.2,0,0,0,.783-2.167,2.647,2.647,0,0,0-.993-2.214,5.82,5.82,0,0,0-2.487-.923c-.047-.015-.191-.047-.434-.1l-.392-.1a4.113,4.113,0,0,1-1.725-.7,1.616,1.616,0,0,1-.529-1.317,1.806,1.806,0,0,1,.6-1.412,2.276,2.276,0,0,1,1.573-.538,3.232,3.232,0,0,1,1.507.377c.017.013.32.233.908.667a.606.606,0,0,0,.423.167.547.547,0,0,0,.62-.616.583.583,0,0,0-.235-.48,2.722,2.722,0,0,0-.912-.563,5.964,5.964,0,0,0-.991-.258,6.438,6.438,0,0,0-1.082-.1,3.764,3.764,0,0,0-2.726.98,2.983,2.983,0,0,0-.946,2.246A2.631,2.631,0,0,0,111,25.615a3.268,3.268,0,0,0,1.6.986c.254.074.453.131.6.169s.385.08.707.135.665.11,1.033.169a3.386,3.386,0,0,1,1.42.593,1.824,1.824,0,0,1,.69,1.5,2.06,2.06,0,0,1-.842,1.691,3.346,3.346,0,0,1-2.142.667,3.427,3.427,0,0,1-1.573-.345,3.339,3.339,0,0,1-1.209-1.058c-.182-.3-.356-.595-.514-.868a.421.421,0,0,0-.337-.231.427.427,0,0,0-.345.184.65.65,0,0,0-.146.432,1.946,1.946,0,0,0,.411,1.067,3.472,3.472,0,0,0,1.306,1.147" transform="translate(-3932.229 -3497.951)" fill="#fff"/>
    <path id="Trazado_13947" data-name="Trazado 13947" d="M115.114,32.208a.643.643,0,0,0,.715-.6l.006-3.874,1.662-.057a11.131,11.131,0,0,0,2.536-.449,3.3,3.3,0,0,0,2.582-3.393,2.665,2.665,0,0,0-1.429-2.326,6.458,6.458,0,0,0-3.45-.811h-2.623a.627.627,0,0,0-.72.7V31.512a.626.626,0,0,0,.72.7m.722-9.224c.006-.669.178-1.1.514-1.3a3.083,3.083,0,0,1,1.348-.193,3.706,3.706,0,0,1,2.646.787A2.41,2.41,0,0,1,121,24.1a2.234,2.234,0,0,1-1.516,2.231,7.472,7.472,0,0,1-2.015.432q-.727.064-1.636.064Z" transform="translate(-3927.26 -3497.888)" fill="#fff"/>
    <path id="Trazado_13948" data-name="Trazado 13948" d="M118.068,31.726a.6.6,0,0,0,1.2.129,29.639,29.639,0,0,1,1.027-3.539h4.8q.749,2.07,1.164,3.505a.693.693,0,0,0,.713.512.674.674,0,0,0,.764-.76.786.786,0,0,0-.057-.29,71.923,71.923,0,0,0-3.873-9.641q-.524-1.057-.94-1.058-.232,0-.665.728a16.839,16.839,0,0,0-.787,1.558c-.229.512-.442,1-.641,1.45q-.625,1.413-1.285,3.171-.537,1.387-.9,2.453l-.483,1.613Zm3.3-6.306q.7-1.734,1.331-2.944,1.067,2.254,2.07,4.942H120.6q.362-1,.762-2" transform="translate(-3923.157 -3498.015)" fill="#fff"/>
    <path id="Trazado_13949" data-name="Trazado 13949" d="M123.5,32.208a.438.438,0,0,0,.48-.417v-.826l.008-8.126,6.642,9.057a.683.683,0,0,0,.584.3.666.666,0,0,0,.675-.464.526.526,0,0,0,.04-.138l.008-10.412a.489.489,0,1,0-.978,0V30.06l-6.6-9.017c-.013-.017-.042-.051-.091-.1l-.055-.049a.7.7,0,0,0-.483-.193.637.637,0,0,0-.72.722v10.3a.432.432,0,0,0,.489.489" transform="translate(-3917.642 -3497.888)" fill="#fff"/>
    <path id="Trazado_13950" data-name="Trazado 13950" d="M124.2,21.849c.091,0,.176-.076.258-.233a5.006,5.006,0,0,1,.328-.569.676.676,0,0,1,.474-.167c.042,0,.135.023.279.055l.425.089c.231.064.37.1.417.112a3.964,3.964,0,0,0,.849.152h.028a1.3,1.3,0,0,0,1.1-.538,3.463,3.463,0,0,0,.5-1.156l.025-.072a.321.321,0,0,0,.008-.055.217.217,0,0,0-.144-.21.151.151,0,0,0-.08-.023c-.091,0-.178.076-.258.233a4.3,4.3,0,0,1-.328.576.692.692,0,0,1-.474.161,1.771,1.771,0,0,1-.282-.049l-.423-.1-.411-.1a4.06,4.06,0,0,0-.857-.152H125.6a1.3,1.3,0,0,0-1.1.529,3.7,3.7,0,0,0-.5,1.156l-.017.08a.32.32,0,0,0-.008.055.211.211,0,0,0,.138.2.159.159,0,0,0,.078.023" transform="translate(-3916.554 -3499.521)" fill="#fff"/>
    <path id="Trazado_13951" data-name="Trazado 13951" d="M136.977,30.747a5.99,5.99,0,0,0,1.518-4.225,5.991,5.991,0,0,0-1.524-4.244,5.127,5.127,0,0,0-3.933-1.638,5,5,0,0,0-3.863,1.653,6.027,6.027,0,0,0-1.511,4.229,5.983,5.983,0,0,0,1.526,4.219,5.424,5.424,0,0,0,7.787.006m-6.689-.593a5.855,5.855,0,0,1-1.044-3.632,7.411,7.411,0,0,1,.36-2.392,4.057,4.057,0,0,1,1.221-1.877,3.45,3.45,0,0,1,2.286-.762,3.308,3.308,0,0,1,2.781,1.365,5.922,5.922,0,0,1,1.027,3.666,6.16,6.16,0,0,1-.889,3.488,3.39,3.39,0,0,1-2.993,1.516,3.275,3.275,0,0,1-2.75-1.372" transform="translate(-3912.442 -3497.952)" fill="#fff"/>
    <path id="Trazado_13952" data-name="Trazado 13952" d="M140.36,30.711a.715.715,0,0,0-.294.063,5.492,5.492,0,0,1-1.092.466,8.212,8.212,0,0,1-1.941.161,4.776,4.776,0,0,1-2.007-.239c-.176-.121-.262-.451-.262-1l-.008-8.807a.69.69,0,1,0-1.38,0v10.2a.612.612,0,0,0,.688.7h6.3a.769.769,0,0,0,0-1.539" transform="translate(-3906.064 -3497.931)" fill="#fff"/>
    <path id="Trazado_13953" data-name="Trazado 13953" d="M146.77,31.284a72.032,72.032,0,0,0-3.874-9.641q-.521-1.057-.938-1.058-.232,0-.667.73a17.1,17.1,0,0,0-.785,1.556q-.346.772-.641,1.45-.625,1.416-1.285,3.171-.537,1.387-.906,2.453-.038.137-.483,1.613l-.023.169a.6.6,0,0,0,1.2.129,29.874,29.874,0,0,1,1.027-3.539h4.8q.746,2.07,1.166,3.505a.69.69,0,0,0,.711.514.674.674,0,0,0,.762-.762.794.794,0,0,0-.057-.29M139.7,27.419c.239-.663.5-1.331.762-2q.7-1.734,1.331-2.944,1.067,2.254,2.07,4.942Z" transform="translate(-3901.828 -3498.015)" fill="#fff"/>
    <path id="Trazado_13954" data-name="Trazado 13954" d="M72.045,30.011l-2.593.008a.609.609,0,0,0-.648.69V40.825a.612.612,0,0,0,.69.7h2.333a6.844,6.844,0,0,0,4.6-1.45A5.169,5.169,0,0,0,78.2,35.9a5.689,5.689,0,0,0-1.638-4.322,6.273,6.273,0,0,0-4.515-1.566m3.088,9.61a4.715,4.715,0,0,1-3.274,1.124,2.165,2.165,0,0,1-1.346-.288,1.53,1.53,0,0,1-.33-1.092V32.659a3.008,3.008,0,0,1,.29-1.547q.232-.308,1.1-.307a5.846,5.846,0,0,1,3.143.747,3.781,3.781,0,0,1,1.5,1.861,6.631,6.631,0,0,1,.377,2.366,4.891,4.891,0,0,1-1.458,3.842" transform="translate(-3978.169 -3487.488)" fill="#fff"/>
    <path id="Trazado_13955" data-name="Trazado 13955" d="M82.081,40.775a.667.667,0,0,0-.764-.745.776.776,0,0,0-.326.072,5.25,5.25,0,0,1-2.608.5h-1.74q-.819,0-1.044-.262a1.528,1.528,0,0,1-.224-.923l-.008-3.689h4.724a.474.474,0,1,0,0-.948H75.367V31.847A1.082,1.082,0,0,1,75.7,31a1.061,1.061,0,0,1,.112-.063,11.812,11.812,0,0,1,1.486-.072,8.907,8.907,0,0,1,2.013.161,5.912,5.912,0,0,1,1.13.466.794.794,0,0,0,.311.064.77.77,0,1,0,0-1.539H74.645a.624.624,0,0,0-.715.7l.008,10.113a.624.624,0,0,0,.713.7h6.665a.667.667,0,0,0,.764-.745" transform="translate(-3972.445 -3487.487)" fill="#fff"/>
    <path id="Trazado_13956" data-name="Trazado 13956" d="M87.792,31.577a6.269,6.269,0,0,0-4.515-1.566l-2.593.008a.609.609,0,0,0-.648.69V40.825a.611.611,0,0,0,.688.7H83.06a6.848,6.848,0,0,0,4.6-1.45A5.168,5.168,0,0,0,89.429,35.9a5.687,5.687,0,0,0-1.636-4.322m-1.427,8.043a4.715,4.715,0,0,1-3.274,1.124,2.17,2.17,0,0,1-1.346-.288,1.53,1.53,0,0,1-.33-1.092V32.659a3.008,3.008,0,0,1,.29-1.547q.232-.308,1.1-.307a5.859,5.859,0,0,1,3.145.747,3.788,3.788,0,0,1,1.5,1.861,6.629,6.629,0,0,1,.379,2.366,4.892,4.892,0,0,1-1.461,3.842" transform="translate(-3965.625 -3487.488)" fill="#fff"/>
    <path id="Trazado_13957" data-name="Trazado 13957" d="M93.315,40.775a.666.666,0,0,0-.762-.745.794.794,0,0,0-.33.072,5.244,5.244,0,0,1-2.608.5H87.878c-.548,0-.893-.087-1.044-.262a1.528,1.528,0,0,1-.224-.923L86.6,35.731h4.724a.474.474,0,1,0,0-.948H86.6V31.847A1.075,1.075,0,0,1,86.938,31a1.061,1.061,0,0,1,.112-.063,11.774,11.774,0,0,1,1.484-.072,8.928,8.928,0,0,1,2.015.161,5.912,5.912,0,0,1,1.13.466.794.794,0,0,0,.311.064.77.77,0,1,0,0-1.539H85.879a.624.624,0,0,0-.715.7l.008,10.113a.623.623,0,0,0,.713.7h6.668a.666.666,0,0,0,.762-.745" transform="translate(-3959.9 -3487.487)" fill="#fff"/>
    <path id="Trazado_13958" data-name="Trazado 13958" d="M97.486,40.7a.8.8,0,0,0-.072-.32l-.521-1.171c-.381-.823-.627-1.342-.739-1.549a11.543,11.543,0,0,0-.715-1.171c.307-.193.586-.379.845-.555a3.111,3.111,0,0,0,1.283-2.792,2.607,2.607,0,0,0-1.234-2.189,6.151,6.151,0,0,0-3.643-.946H90.065c-.48,0-.722.231-.722.7V40.824a.628.628,0,0,0,.722.7.641.641,0,0,0,.715-.6l.008-3.876,1.82-.072a13.346,13.346,0,0,0,1.365-.184,14.328,14.328,0,0,1,1.907,4.14.751.751,0,0,0,.787.584.719.719,0,0,0,.817-.811M94.838,35.45a6.234,6.234,0,0,1-2.373.618c-.5.047-1.056.072-1.676.072V32.3q.01-1,.514-1.3a3.071,3.071,0,0,1,1.346-.193,3.668,3.668,0,0,1,2.695.826,2.456,2.456,0,0,1,.61,1.78,2.164,2.164,0,0,1-1.115,2.038" transform="translate(-3955.233 -3487.487)" fill="#fff"/>
    <path id="Trazado_13959" data-name="Trazado 13959" d="M103.426,41.521a.627.627,0,0,0,.69-.6l.006-10.2a.616.616,0,0,0-.7-.7.658.658,0,0,0-.65.432l-3.617,7.9-3.994-7.944a.7.7,0,0,0-.466-.368,1.246,1.246,0,0,0-.265-.032c-.322,0-.529.186-.624.563l-.025,10.458a.436.436,0,0,0,.5.489.447.447,0,0,0,.489-.425l.008-8.261,3.584,6.907a.645.645,0,0,0,.428.339.844.844,0,0,0,.207.03.6.6,0,0,0,.546-.36l.015-.017q1.029-2.229,3.162-6.826v7.916a.62.62,0,0,0,.7.7" transform="translate(-3950.273 -3487.488)" fill="#fff"/>
    <path id="Trazado_13960" data-name="Trazado 13960" d="M104,29.9q-.232,0-.665.73a16.747,16.747,0,0,0-.787,1.556c-.231.514-.442,1-.643,1.452q-.622,1.413-1.283,3.169-.533,1.387-.9,2.455c-.028.091-.188.627-.483,1.611l-.023.169a.6.6,0,0,0,1.194.129,29.868,29.868,0,0,1,1.027-3.539h4.8q.749,2.07,1.164,3.505a.693.693,0,0,0,.713.514.674.674,0,0,0,.762-.762.837.837,0,0,0-.055-.29,72.434,72.434,0,0,0-3.876-9.641Q104.421,29.9,104,29.9m-2.254,6.835c.241-.663.493-1.329.764-2q.7-1.734,1.329-2.944,1.07,2.257,2.07,4.942Z" transform="translate(-3944.208 -3487.614)" fill="#fff"/>
    <path id="Trazado_13961" data-name="Trazado 13961" d="M111.96,31.488a.7.7,0,0,0,.3.064.771.771,0,0,0,0-1.541h-7.652a.771.771,0,0,0,0,1.541.687.687,0,0,0,.294-.064,4.179,4.179,0,0,1,2.271-.61c.3.036.481.142.529.311a2.856,2.856,0,0,1,.04.353v9.282a.684.684,0,0,0,1.363.1l.017-9.017a1.875,1.875,0,0,1,.119-.883.634.634,0,0,1,.417-.152,6.3,6.3,0,0,1,1.219.152,5.639,5.639,0,0,1,1.084.466" transform="translate(-3939.033 -3487.488)" fill="#fff"/>
    <path id="Trazado_13962" data-name="Trazado 13962" d="M109.856,31.607a6.038,6.038,0,0,0-1.507,4.227,5.991,5.991,0,0,0,1.522,4.221,5.426,5.426,0,0,0,7.789.006,5.985,5.985,0,0,0,1.518-4.227,5.956,5.956,0,0,0-1.528-4.242,5.115,5.115,0,0,0-3.929-1.638,5,5,0,0,0-3.865,1.653m6.725.561a5.94,5.94,0,0,1,1.022,3.666,6.172,6.172,0,0,1-.889,3.49,3.387,3.387,0,0,1-2.993,1.516,3.273,3.273,0,0,1-2.75-1.372,5.844,5.844,0,0,1-1.046-3.634,7.347,7.347,0,0,1,.364-2.39,4.051,4.051,0,0,1,1.217-1.877A3.464,3.464,0,0,1,113.8,30.8a3.322,3.322,0,0,1,2.786,1.363" transform="translate(-3934.01 -3487.552)" fill="#fff"/>
    <path id="Trazado_13963" data-name="Trazado 13963" d="M114.749,41.565h6.3a.771.771,0,0,0,0-1.541.735.735,0,0,0-.3.066,5.541,5.541,0,0,1-1.092.464,8.188,8.188,0,0,1-1.941.161,4.733,4.733,0,0,1-2-.239c-.178-.119-.262-.451-.262-.995l-.011-8.81a.69.69,0,1,0-1.38,0v10.2a.614.614,0,0,0,.69.7" transform="translate(-3927.634 -3487.53)" fill="#fff"/>
    <path id="Trazado_13964" data-name="Trazado 13964" d="M122.961,29.954a5,5,0,0,0-3.865,1.653,6.034,6.034,0,0,0-1.509,4.227,5.985,5.985,0,0,0,1.526,4.221,5.426,5.426,0,0,0,7.787.008,6,6,0,0,0,1.518-4.229,5.968,5.968,0,0,0-1.526-4.242,5.123,5.123,0,0,0-3.931-1.638m2.993,9.37a3.387,3.387,0,0,1-2.993,1.516,3.274,3.274,0,0,1-2.752-1.372,5.852,5.852,0,0,1-1.041-3.634,7.417,7.417,0,0,1,.36-2.39,4.048,4.048,0,0,1,1.219-1.875,3.444,3.444,0,0,1,2.286-.764,3.316,3.316,0,0,1,2.786,1.365,5.947,5.947,0,0,1,1.024,3.664,6.163,6.163,0,0,1-.889,3.49" transform="translate(-3923.694 -3487.552)" fill="#fff"/>
    <path id="Trazado_13965" data-name="Trazado 13965" d="M128.716,41.706a8.042,8.042,0,0,0,2.11-.282,6.913,6.913,0,0,0,1.547-.6,2.44,2.44,0,0,0,.77-.593,1.391,1.391,0,0,0,.159-.273.592.592,0,0,0,.04-.233,2.091,2.091,0,0,0-.03-.21,2.678,2.678,0,0,1-.049-.337l-.034-2.766a.594.594,0,0,0-.673-.673h-2.711a.46.46,0,0,0,0,.921h1.636a.583.583,0,0,1,.233.138,3.059,3.059,0,0,1,.218,1.547,2.546,2.546,0,0,1-.682,1.973,3.131,3.131,0,0,1-2.136.61,4.4,4.4,0,0,1-3.241-1.34,4.507,4.507,0,0,1-1.323-3.3,7.147,7.147,0,0,1,.455-2.542,5.084,5.084,0,0,1,1.431-2.093,3.691,3.691,0,0,1,2.447-.868,3.507,3.507,0,0,1,1.731.442,3.4,3.4,0,0,1,.995.809.635.635,0,0,0,.466.195.582.582,0,0,0,.658-.658.631.631,0,0,0-.186-.457,2.03,2.03,0,0,0-.586-.491,4.06,4.06,0,0,0-1.291-.487,7.218,7.218,0,0,0-1.619-.178,5.859,5.859,0,0,0-4.371,1.748,6.173,6.173,0,0,0-1.708,4.494,5.268,5.268,0,0,0,1.587,3.986,5.752,5.752,0,0,0,4.155,1.524" transform="translate(-3917.68 -3487.552)" fill="#fff"/>
    <path id="Trazado_13966" data-name="Trazado 13966" d="M129.136,29.954c-.457,0-.684.239-.684.713V40.992c0,.474.227.713.684.713a.62.62,0,0,0,.673-.618h.006V30.667c0-.474-.224-.713-.679-.713" transform="translate(-3911.562 -3487.552)" fill="#fff"/>
    <path id="Trazado_13967" data-name="Trazado 13967" d="M131.034,28.34q-.479,0-2.254,2.616a.528.528,0,0,0-.1.256.144.144,0,0,0,.032.1.279.279,0,0,0,.2.089.645.645,0,0,0,.383-.176c.034-.028.73-.574,2.1-1.638q.61-.432.61-.777a.492.492,0,0,0-.184-.36,1.592,1.592,0,0,0-.779-.106" transform="translate(-3911.312 -3489.354)" fill="#fff"/>
    <path id="Trazado_13968" data-name="Trazado 13968" d="M136.443,30.955q-.521-1.057-.938-1.058-.232,0-.665.73a16.667,16.667,0,0,0-.79,1.556c-.229.514-.442,1-.641,1.452q-.622,1.413-1.283,3.169-.537,1.387-.9,2.455c-.028.091-.188.627-.483,1.611l-.025.169a.6.6,0,0,0,1.2.129,29.345,29.345,0,0,1,1.027-3.537h4.8q.746,2.07,1.164,3.5a.694.694,0,0,0,.713.514.674.674,0,0,0,.762-.762.837.837,0,0,0-.055-.29,72.433,72.433,0,0,0-3.876-9.641m-3.192,5.776q.359-.994.764-2,.7-1.73,1.327-2.944,1.07,2.257,2.072,4.942Z" transform="translate(-3909.035 -3487.615)" fill="#fff"/>
    <path id="Trazado_13969" data-name="Trazado 13969" d="M77,39.325a.433.433,0,0,0-.449.345,15.96,15.96,0,0,1-3.274,5.544q-.359-.425-.963-1.268c-.3-.417-.588-.832-.874-1.245-.229-.337-.358-.525-.383-.569a9.207,9.207,0,0,1-.98-2.172l-.023-.1a.715.715,0,0,0-.739-.538.688.688,0,0,0-.768.787.885.885,0,0,0,.087.351c.119.237.21.417.273.542s.345.595.842,1.408q.4.667,1.194,1.82.756,1.1.98,1.46a2.332,2.332,0,0,1,.409.874v3.569a.614.614,0,0,0,.69.7.626.626,0,0,0,.684-.6l0-4.132c.464-.663.946-1.357,1.456-2.085.121-.18.231-.347.326-.5A18.667,18.667,0,0,0,77.429,40a.566.566,0,0,0,.04-.191A.422.422,0,0,0,77,39.325" transform="translate(-3978.46 -3477.087)" fill="#fff"/>
    <path id="Trazado_13970" data-name="Trazado 13970" d="M83.759,39.325a.549.549,0,0,0-.593.483v.006a39.186,39.186,0,0,1-2.1,6.426,30.706,30.706,0,0,1-1.331,2.944A62.654,62.654,0,0,1,76.2,39.839a.706.706,0,0,0-.722-.514.67.67,0,0,0-.754.762.754.754,0,0,0,.057.29,72.3,72.3,0,0,0,3.867,9.641c.347.7.658,1.058.938,1.058.155,0,.375-.243.665-.73.21-.358.468-.876.779-1.556.229-.519.444-1,.641-1.452q.619-1.419,1.283-3.169.53-1.378.9-2.453c.028-.093.188-.629.483-1.613l.023-.169a.535.535,0,0,0-.6-.61" transform="translate(-3971.555 -3477.087)" fill="#fff"/>
    <path id="Trazado_13971" data-name="Trazado 13971" d="M87.049,49.344a.778.778,0,0,0-.328.072,5.252,5.252,0,0,1-2.608.506h-1.74q-.819,0-1.044-.267a1.515,1.515,0,0,1-.224-.921L81.1,45.045h4.727a.474.474,0,1,0,0-.948H81.1V41.161a1.073,1.073,0,0,1,.337-.849.912.912,0,0,1,.114-.066,11.752,11.752,0,0,1,1.484-.072,8.783,8.783,0,0,1,2.013.161,5.856,5.856,0,0,1,1.13.466.8.8,0,0,0,.311.063.771.771,0,1,0,0-1.541H80.378a.626.626,0,0,0-.718.7l.011,10.116a.622.622,0,0,0,.711.7h6.668a.746.746,0,1,0,0-1.492" transform="translate(-3966.046 -3477.089)" fill="#fff"/>
    <path id="Trazado_13972" data-name="Trazado 13972" d="M92.291,39.325a.432.432,0,0,0-.489.489v8.873L85.2,39.67c-.011-.017-.042-.051-.089-.1l-.055-.049a.7.7,0,0,0-.483-.193.638.638,0,0,0-.722.722v10.3a.432.432,0,0,0,.489.489.439.439,0,0,0,.483-.417v-.826l.008-8.126,6.642,9.057a.682.682,0,0,0,.582.3.67.67,0,0,0,.677-.464.518.518,0,0,0,.038-.138l.008-10.412a.432.432,0,0,0-.489-.489" transform="translate(-3961.365 -3477.087)" fill="#fff"/>
    <path id="Trazado_13973" data-name="Trazado 13973" d="M96.173,49.344a.778.778,0,0,0-.328.072,5.247,5.247,0,0,1-2.608.506H91.5q-.819,0-1.041-.267a1.513,1.513,0,0,1-.226-.921l-.008-3.689h4.727a.474.474,0,1,0,0-.948H90.221V41.161a1.073,1.073,0,0,1,.337-.849,1.1,1.1,0,0,1,.114-.066,11.776,11.776,0,0,1,1.484-.072,8.782,8.782,0,0,1,2.013.161,5.856,5.856,0,0,1,1.13.466.8.8,0,0,0,.313.063.771.771,0,1,0,0-1.541H89.5a.625.625,0,0,0-.715.7l.008,10.116a.623.623,0,0,0,.711.7h6.668a.746.746,0,1,0,0-1.492" transform="translate(-3955.855 -3477.089)" fill="#fff"/>
    <path id="Trazado_13974" data-name="Trazado 13974" d="M101.189,42.461a2.6,2.6,0,0,0-1.234-2.189,6.15,6.15,0,0,0-3.643-.948H93.688a.628.628,0,0,0-.722.7V50.138a.628.628,0,0,0,.722.7.643.643,0,0,0,.715-.6l.008-3.876,1.82-.072A12.683,12.683,0,0,0,97.6,46.1a14.327,14.327,0,0,1,1.907,4.14.751.751,0,0,0,.787.586.72.72,0,0,0,.817-.811.762.762,0,0,0-.072-.32l-.519-1.173c-.383-.823-.629-1.34-.741-1.547a11.318,11.318,0,0,0-.715-1.171c.307-.193.586-.379.845-.555a3.111,3.111,0,0,0,1.283-2.792m-2.726,2.3a6.257,6.257,0,0,1-2.375.618c-.5.047-1.056.072-1.676.072V41.61c0-.667.178-1.1.514-1.3a3.036,3.036,0,0,1,1.346-.195,3.668,3.668,0,0,1,2.695.828,2.456,2.456,0,0,1,.61,1.78,2.17,2.17,0,0,1-1.113,2.038" transform="translate(-3951.188 -3477.089)" fill="#fff"/>
    <path id="Trazado_13975" data-name="Trazado 13975" d="M104.757,49.344a.785.785,0,0,0-.328.072,5.241,5.241,0,0,1-2.608.506h-1.74q-.819,0-1.041-.267a1.512,1.512,0,0,1-.226-.921l-.008-3.689h4.727a.474.474,0,1,0,0-.948H98.805V41.161a1.073,1.073,0,0,1,.337-.849,1.1,1.1,0,0,1,.114-.066,11.776,11.776,0,0,1,1.484-.072,8.783,8.783,0,0,1,2.013.161,5.856,5.856,0,0,1,1.13.466.8.8,0,0,0,.313.063.771.771,0,1,0,0-1.541H98.085a.625.625,0,0,0-.715.7l.008,10.116a.623.623,0,0,0,.711.7h6.668a.746.746,0,1,0,0-1.492" transform="translate(-3946.27 -3477.089)" fill="#fff"/>
    <path id="Trazado_13976" data-name="Trazado 13976" d="M106.647,39.267a5,5,0,0,0-3.867,1.653,6.029,6.029,0,0,0-1.507,4.227,5.983,5.983,0,0,0,1.524,4.221,5.424,5.424,0,0,0,7.789.008,6.008,6.008,0,0,0,1.516-4.229,5.976,5.976,0,0,0-1.524-4.242,5.126,5.126,0,0,0-3.931-1.638m2.993,9.371a3.392,3.392,0,0,1-2.993,1.516,3.28,3.28,0,0,1-2.754-1.372,5.879,5.879,0,0,1-1.039-3.634,7.475,7.475,0,0,1,.358-2.39,4.067,4.067,0,0,1,1.221-1.875,3.436,3.436,0,0,1,2.286-.764,3.318,3.318,0,0,1,2.783,1.365,5.934,5.934,0,0,1,1.027,3.664,6.163,6.163,0,0,1-.889,3.49" transform="translate(-3941.912 -3477.152)" fill="#fff"/>
    <path id="Trazado_13977" data-name="Trazado 13977" d="M113.971,49.338a.732.732,0,0,0-.3.063,5.441,5.441,0,0,1-1.092.466,8.188,8.188,0,0,1-1.941.161,4.77,4.77,0,0,1-2-.239c-.178-.119-.262-.451-.262-1l-.011-8.807a.69.69,0,1,0-1.38,0v10.2a.614.614,0,0,0,.69.7h6.3a.771.771,0,0,0,0-1.541" transform="translate(-3935.534 -3477.131)" fill="#fff"/>
    <path id="Trazado_13978" data-name="Trazado 13978" d="M115.886,39.267a5,5,0,0,0-3.865,1.653,6.03,6.03,0,0,0-1.509,4.227,5.975,5.975,0,0,0,1.526,4.221,5.424,5.424,0,0,0,7.789.008,6.007,6.007,0,0,0,1.513-4.229,5.975,5.975,0,0,0-1.522-4.242,5.127,5.127,0,0,0-3.933-1.638m2.993,9.371a3.39,3.39,0,0,1-2.993,1.516,3.277,3.277,0,0,1-2.752-1.372,5.865,5.865,0,0,1-1.039-3.634,7.476,7.476,0,0,1,.358-2.39,4.051,4.051,0,0,1,1.221-1.875,3.44,3.44,0,0,1,2.286-.764,3.318,3.318,0,0,1,2.783,1.365,5.934,5.934,0,0,1,1.027,3.664,6.18,6.18,0,0,1-.891,3.49" transform="translate(-3931.595 -3477.152)" fill="#fff"/>
    <path id="Trazado_13979" data-name="Trazado 13979" d="M126.19,48.492l-.032-2.766a.6.6,0,0,0-.673-.675h-2.714a.461.461,0,0,0,0,.923h1.638a.573.573,0,0,1,.231.138,3.059,3.059,0,0,1,.218,1.549,2.544,2.544,0,0,1-.682,1.971,3.142,3.142,0,0,1-2.136.61A4.393,4.393,0,0,1,118.8,48.9a4.505,4.505,0,0,1-1.325-3.306,7.094,7.094,0,0,1,.457-2.542,5.06,5.06,0,0,1,1.429-2.093,3.7,3.7,0,0,1,2.447-.866,3.519,3.519,0,0,1,1.734.44,3.394,3.394,0,0,1,.995.811.631.631,0,0,0,.464.19.581.581,0,0,0,.658-.656.638.638,0,0,0-.184-.457,1.987,1.987,0,0,0-.586-.489,4.043,4.043,0,0,0-1.293-.489,7.232,7.232,0,0,0-1.619-.178,5.874,5.874,0,0,0-4.371,1.748,6.181,6.181,0,0,0-1.71,4.492,5.267,5.267,0,0,0,1.59,3.988,5.752,5.752,0,0,0,4.155,1.524,8.043,8.043,0,0,0,2.11-.282,6.912,6.912,0,0,0,1.547-.6,2.39,2.39,0,0,0,.77-.593,1.362,1.362,0,0,0,.161-.273.625.625,0,0,0,.04-.233c0-.028-.013-.1-.032-.21a2.679,2.679,0,0,1-.049-.337" transform="translate(-3925.581 -3477.151)" fill="#fff"/>
    <path id="Trazado_13980" data-name="Trazado 13980" d="M122.059,39.267q-.683,0-.682.715V50.305q0,.714.682.713a.619.619,0,0,0,.673-.616h.008V39.982q0-.714-.682-.715" transform="translate(-3919.462 -3477.152)" fill="#fff"/>
    <path id="Trazado_13981" data-name="Trazado 13981" d="M123.959,37.653q-.479,0-2.254,2.616a.528.528,0,0,0-.1.256.144.144,0,0,0,.032.1.274.274,0,0,0,.2.089.645.645,0,0,0,.385-.176c.034-.028.73-.574,2.1-1.636.406-.29.61-.548.61-.779a.492.492,0,0,0-.184-.36,1.592,1.592,0,0,0-.779-.106" transform="translate(-3919.212 -3478.955)" fill="#fff"/>
    <path id="Trazado_13982" data-name="Trazado 13982" d="M129.368,40.269q-.521-1.057-.94-1.058c-.155,0-.375.243-.665.73a17.01,17.01,0,0,0-.787,1.556c-.229.514-.442,1-.641,1.452q-.622,1.413-1.283,3.169-.537,1.387-.9,2.455c-.03.091-.188.627-.485,1.613l-.023.167a.6.6,0,0,0,1.2.129,29.46,29.46,0,0,1,1.027-3.539h4.8q.746,2.07,1.164,3.505a.693.693,0,0,0,.713.514.674.674,0,0,0,.762-.762.837.837,0,0,0-.055-.29,72.324,72.324,0,0,0-3.876-9.641m-3.192,5.776c.239-.663.5-1.329.762-2q.7-1.734,1.331-2.944,1.067,2.257,2.07,4.942Z" transform="translate(-3916.935 -3477.215)" fill="#fff"/>
    <path id="Trazado_13983" data-name="Trazado 13983" d="M61.481,14.143a2.392,2.392,0,0,0,2.407-2.411,2.385,2.385,0,0,0-2.407-2.4l-23.605,0a2.389,2.389,0,0,0-2.4,2.407V56.539a2.385,2.385,0,0,0,2.4,2.407H61.481a2.406,2.406,0,1,0,0-4.811l-21.2,0V36.272H54.413a2.408,2.408,0,1,0,0-4.815H40.28V14.143Z" transform="translate(-4015.391 -3510.588)" fill="#fff"/>
    <path id="Trazado_13984" data-name="Trazado 13984" d="M47.856,40.076a24.553,24.553,0,0,0-7.719-5.213,23.633,23.633,0,0,0-9.438-1.9H17.619a2.345,2.345,0,0,0-2.366,2.358v43.9a2.342,2.342,0,0,0,2.366,2.358H30.7a23.6,23.6,0,0,0,9.438-1.9A24.324,24.324,0,0,0,53.067,66.7a23.815,23.815,0,0,0,1.905-9.472A23.55,23.55,0,0,0,53.067,47.8a24.568,24.568,0,0,0-5.211-7.722m.876,24.763a19.59,19.59,0,0,1-4.18,6.24A20.252,20.252,0,0,1,38.308,75.3a18.863,18.863,0,0,1-7.609,1.56H19.973V37.678H30.7A19.272,19.272,0,0,1,38.308,39.2,19.371,19.371,0,0,1,48.732,49.624a19.8,19.8,0,0,1,0,15.215" transform="translate(-4037.968 -3484.193)" fill="#fff"/>
    <path id="Trazado_13985" data-name="Trazado 13985" d="M96.053,56.651a2.5,2.5,0,0,0-1.516.476,3.2,3.2,0,0,0-1,1.173L77.405,102.014,59.8,60.54a1.549,1.549,0,0,0-.11-.368l-3.029-7.025L54.2,47.357c-.028-.055-.072-.1-.1-.152L38.264,10.472a4.121,4.121,0,0,0-1.041-1.391,2.328,2.328,0,0,0-1.564-.6,2.216,2.216,0,0,0-1.56.65,3.59,3.59,0,0,0-.953,1.344l-21.6,49.7a2.3,2.3,0,0,0-.258,1.046,2.59,2.59,0,0,0,2.686,2.6,2.77,2.77,0,0,0,2.517-1.647l6.936-15.877H47.8L52.492,57.02l22.4,53.065a3.584,3.584,0,0,0,.952,1.342,2.228,2.228,0,0,0,1.562.654,2.378,2.378,0,0,0,1.518-.607,3.819,3.819,0,0,0,1.084-1.389l18.479-49.79a2.473,2.473,0,0,0,.171-1.041,2.661,2.661,0,0,0-.69-1.82,2.445,2.445,0,0,0-1.913-.781M25.771,40.918l9.887-22.38,9.8,22.38Z" transform="translate(-4042.394 -3511.533)" fill="#fff"/>
    <path id="Trazado_13986" data-name="Trazado 13986" d="M29.424,65.814a.425.425,0,0,0,.48-.48V57.679a.426.426,0,0,0-.487-.478,1.751,1.751,0,0,0-.883.447,11.47,11.47,0,0,0-2.076,2.178.721.721,0,0,0-.076.11.334.334,0,0,0-.03.138.309.309,0,0,0,.353.345.348.348,0,0,0,.286-.142L27,60.262A8.23,8.23,0,0,1,28.927,58.2v7.137a.433.433,0,0,0,.5.48" transform="translate(-4025.573 -3457.126)" fill="#fff"/>
    <path id="Trazado_13987" data-name="Trazado 13987" d="M30.047,64.178a.576.576,0,0,0-1.151,0,1.256,1.256,0,0,0,.523.914,2.866,2.866,0,0,0,1.968.72,2.636,2.636,0,0,0,2.261-1.264,5.889,5.889,0,0,0,.87-3.421A4.869,4.869,0,0,0,33.76,58.2a2.473,2.473,0,0,0-2.115-.995,2.894,2.894,0,0,0-2.112.8,2.731,2.731,0,0,0-.819,2.053,2.576,2.576,0,0,0,.557,1.674,2.449,2.449,0,0,0,1.712.842,2.333,2.333,0,0,0,.358.025,2.64,2.64,0,0,0,.9-.146,4.955,4.955,0,0,0,1.109-.593c.015.178.025.351.025.521a3.715,3.715,0,0,1-.61,2.14,1.664,1.664,0,0,1-1.475.741A1.341,1.341,0,0,1,30.2,64.7a.61.61,0,0,1-.159-.381V64.3Zm2.47-2.4a2.623,2.623,0,0,1-.967.2,1.58,1.58,0,0,1-1.278-.548,2.3,2.3,0,0,1-.457-1.518,2.475,2.475,0,0,1,.451-1.592,1.535,1.535,0,0,1,1.27-.565,1.611,1.611,0,0,1,1.405.739,2.987,2.987,0,0,1,.521,1.715,3.458,3.458,0,0,1-.015.36,1.39,1.39,0,0,1-.929,1.209" transform="translate(-4022.936 -3457.126)" fill="#fff"/>
    <path id="Trazado_13988" data-name="Trazado 13988" d="M32.622,58.333a5.876,5.876,0,0,0-.728,3.173,5.83,5.83,0,0,0,.732,3.2,2.4,2.4,0,0,0,2.117,1.111,2.349,2.349,0,0,0,1.839-.773,3.8,3.8,0,0,0,.819-1.725,8.361,8.361,0,0,0,.176-1.776,5.731,5.731,0,0,0-.787-3.325A2.464,2.464,0,0,0,34.684,57.2a2.334,2.334,0,0,0-2.062,1.132m3.433.284a8.231,8.231,0,0,1,.436,3.19,9.182,9.182,0,0,1-.138,1.767,2.465,2.465,0,0,1-.514,1.223,1.414,1.414,0,0,1-1.118.453,1.366,1.366,0,0,1-1.329-.817,6.243,6.243,0,0,1-.413-2.654,9.384,9.384,0,0,1,.341-3.054,1.393,1.393,0,0,1,1.4-.967,1.367,1.367,0,0,1,1.334.859" transform="translate(-4019.385 -3457.126)" fill="#fff"/>
    <path id="Trazado_13989" data-name="Trazado 13989" d="M36.287,64.178a.578.578,0,0,0-1.156,0,1.263,1.263,0,0,0,.527.914,2.863,2.863,0,0,0,1.964.72,2.633,2.633,0,0,0,2.265-1.264,5.906,5.906,0,0,0,.866-3.421A4.87,4.87,0,0,0,40,58.2a2.479,2.479,0,0,0-2.115-.995,2.908,2.908,0,0,0-2.117.8,2.73,2.73,0,0,0-.817,2.053,2.555,2.555,0,0,0,.559,1.674,2.959,2.959,0,0,0,2.068.868,2.619,2.619,0,0,0,.893-.146,4.978,4.978,0,0,0,1.113-.593c.015.178.021.351.021.521A3.713,3.713,0,0,1,39,64.514a1.677,1.677,0,0,1-1.482.741,1.346,1.346,0,0,1-1.088-.552.6.6,0,0,1-.155-.381V64.3Zm2.466-2.4a2.61,2.61,0,0,1-.972.2,1.578,1.578,0,0,1-1.272-.548,2.3,2.3,0,0,1-.459-1.518,2.487,2.487,0,0,1,.453-1.592,1.547,1.547,0,0,1,1.27-.565,1.614,1.614,0,0,1,1.405.739,3,3,0,0,1,.523,1.715,3.485,3.485,0,0,1-.021.36,1.382,1.382,0,0,1-.927,1.209" transform="translate(-4015.971 -3457.126)" fill="#fff"/>
    <path id="Trazado_13990" data-name="Trazado 13990" d="M112.262,23.609A68.891,68.891,0,0,0,64.717.116a67.041,67.041,0,0,0-15.983.961A69.148,69.148,0,0,0,23.1,11.51S15.763,16.144,8.033,26.274a56.717,56.717,0,0,1,6.85-6.712,63.968,63.968,0,0,1,9.2-6.485,67.837,67.837,0,0,1,25.19-8.6A71.937,71.937,0,0,1,64.427,4.1,67.685,67.685,0,0,1,80.252,7.383c1.325.428,2.57.95,3.882,1.437l2,.876,1,.447.914.449,1.922.946c.641.324,1.257.692,1.89,1.037,1.278.669,2.487,1.471,3.732,2.233a65.391,65.391,0,0,1,7.053,5.3c1.151.942,2.206,2,3.315,3.014l1.579,1.613c.538.533,1.048,1.09,1.541,1.662A67.056,67.056,0,0,1,125.47,79.041a68.69,68.69,0,0,1-1.854,9.593,72.611,72.611,0,0,1-3.253,9.271,73.517,73.517,0,0,1-4.606,8.7,69.222,69.222,0,0,1-5.842,7.935s8.585-7.19,12.486-15.706a76.241,76.241,0,0,0,3.757-9.455,72.108,72.108,0,0,0,2.347-9.921,69.084,69.084,0,0,0-16.243-55.853" transform="translate(-4046.03 -3521)" fill="#fff"/>
    <path id="Trazado_13991" data-name="Trazado 13991" d="M67.638,115.464c-.77-.013-1.539-.051-2.305-.125l-2.28-.188c-1.513-.207-3.02-.347-4.5-.652a64.671,64.671,0,0,1-8.672-2.127c-1.389-.478-2.8-.917-4.117-1.477-.667-.271-1.327-.51-2-.8l-2.019-.917c-1.287-.544-2.553-1.266-3.821-1.88-1.223-.711-2.47-1.367-3.645-2.121A69.925,69.925,0,0,1,21.556,95.11a73.184,73.184,0,0,1-9.51-11.839A68.416,68.416,0,0,1,2.265,58.479,65.681,65.681,0,0,1,1.219,47.263a57.16,57.16,0,0,1,.671-9.578A59.465,59.465,0,0,1,5.268,24.635c.508-1.471,1.05-2.576,1.35-3.323.32-.745.51-1.162.51-1.162v.006s.152-.339.514-1.06C3.8,24.11,1.19,37.56,1.19,37.56A70.763,70.763,0,0,0,.508,58.743,68.927,68.927,0,0,0,9.275,84.965a66.519,66.519,0,0,0,9.7,12.7c.961,1,1.977,1.958,3.01,2.913,1.084.9,2.123,1.871,3.272,2.724,1.126.881,2.271,1.763,3.478,2.565,1.181.851,2.432,1.613,3.689,2.371s2.584,1.433,3.895,2.144c1.359.624,2.652,1.329,4.089,1.894l2.055.845c.69.269,1.433.512,2.159.768,1.452.542,2.927.931,4.4,1.372a69.334,69.334,0,0,0,9.129,1.827c1.549.241,3.124.324,4.695.466l2.373.093c.79.038,1.583.044,2.377.021,0,0,21.844-.114,36.386-11.754a64.275,64.275,0,0,1-36.35,9.555" transform="translate(-4055 -3499.677)" fill="#fff"/>
  </g>
</svg>
