<svg xmlns="http://www.w3.org/2000/svg" xmlns:xlink="http://www.w3.org/1999/xlink" width="118.559" height="43.456" viewBox="0 0 118.559 43.456">
  <defs>
    <clipPath id="clip-path">
      <rect id="Rectángulo_1473" data-name="Rectángulo 1473" width="118.559" height="43.456" fill="none"/>
    </clipPath>
  </defs>
  <g id="Grupo_39" data-name="Grupo 39" transform="translate(0 0)">
    <g id="Grupo_6" data-name="Grupo 6" transform="translate(0 0)" clip-path="url(#clip-path)">
      <path id="Trazado_373" data-name="Trazado 373" d="M26.418,11.642C26.611,5.43,27.1.817,34.381.817c3.9.031,6.6,1.039,7.635,5.267a14.943,14.943,0,0,1,.23,2.957H37.7c-.066-2.471-.23-4.419-3.316-4.55-3.578,0-3.28,4.257-3.28,6.145v6.757c0,2.015.157,5.3,3.28,5.3,2.6,0,3.446-2.76,3.345-6.437H34.577V12.681h7.575v13.1H38.734v-2.8h-.066a4.609,4.609,0,0,1-4.287,3.381c-7.478,0-7.963-4.745-7.963-11.248Z" transform="translate(2.659 0.082)" fill="#c39400"/>
      <path id="Trazado_374" data-name="Trazado 374" d="M44.7,25.194V.816H57.509V4.393H49.252v6.143h7.607V14.11H49.252v7.511h8.257v3.573Z" transform="translate(4.499 0.082)" fill="#c39400"/>
      <path id="Trazado_375" data-name="Trazado 375" d="M59.972,25.193V.816h9.5a5.641,5.641,0,0,1,4.711,2.76C75.217,5.269,75.511,7.966,75.511,12c0,4.81,0,10.366-3.741,12.55a6.719,6.719,0,0,1-3.374.646Zm6.536-3.573c4.064,0,4.321-2.146,4.321-9.2,0-5.758-.583-8.027-3.314-8.027H64.523V21.621Z" transform="translate(6.036 0.082)" fill="#c39400"/>
      <path id="Trazado_376" data-name="Trazado 376" d="M77.752,25.194V.816H90.562V4.393H82.3v6.143h7.609V14.11H82.3v7.511h8.258v3.573Z" transform="translate(7.826 0.082)" fill="#c39400"/>
      <path id="Trazado_377" data-name="Trazado 377" d="M93.636.816h15.181V4.391h-5.3v20.8H98.968V4.391H93.636Z" transform="translate(9.425 0.082)" fill="#c39400"/>
      <path id="Trazado_378" data-name="Trazado 378" d="M28.173,30.259h1.6v1.948h-.318l-.118-.469a1.493,1.493,0,0,1-1.2.565,1.436,1.436,0,0,1-1.112-.414,1.936,1.936,0,0,1-.578-1.533,1.754,1.754,0,0,1,1.726-1.888,1.461,1.461,0,0,1,1.54,1.2h-.475a1.012,1.012,0,0,0-1.087-.762c-.657,0-1.194.521-1.194,1.477,0,.737.244,1.5,1.211,1.5a1.143,1.143,0,0,0,.746-.232,1.114,1.114,0,0,0,.4-.969H28.173Z" transform="translate(2.662 2.865)" fill="#161615"/>
      <path id="Trazado_379" data-name="Trazado 379" d="M30.495,32.288h-.489V28.644h1.682c.6,0,1.2.21,1.2.98a.9.9,0,0,1-.507.871c.206.09.415.179.437.687l.029.66c0,.2.029.277.186.367v.08h-.606a4.229,4.229,0,0,1-.085-.915c0-.3-.064-.652-.649-.652H30.495Zm0-1.983h1.139c.363,0,.743-.094.743-.63,0-.564-.412-.608-.656-.608H30.495Z" transform="translate(3.02 2.883)" fill="#161615"/>
      <path id="Trazado_380" data-name="Trazado 380" d="M35.974,28.556v2.362a1.323,1.323,0,0,1-1.467,1.375,1.264,1.264,0,0,1-1.4-1.306v-2.43H33.6v2.292a.944.944,0,1,0,1.883.013v-2.3Z" transform="translate(3.332 2.874)" fill="#161615"/>
      <path id="Trazado_381" data-name="Trazado 381" d="M36.732,32.287h-.493V28.645h1.64A.994.994,0,0,1,38.96,29.67a1.014,1.014,0,0,1-1.081,1.08H36.732Zm0-1.959h.977c.441,0,.741-.163.741-.654,0-.462-.31-.606-.719-.606h-1Z" transform="translate(3.648 2.883)" fill="#161615"/>
      <path id="Trazado_382" data-name="Trazado 382" d="M40.763,32.3a1.923,1.923,0,1,1,1.776-1.915A1.765,1.765,0,0,1,40.763,32.3m0-3.4a1.312,1.312,0,0,0-1.27,1.483,1.284,1.284,0,1,0,2.538,0A1.313,1.313,0,0,0,40.763,28.9" transform="translate(3.924 2.865)" fill="#161615"/>
      <path id="Trazado_383" data-name="Trazado 383" d="M46.53,32.284H43.842V28.645H46.5v.435H44.334V30.2h2v.437h-2V31.85h2.2Z" transform="translate(4.413 2.883)" fill="#161615"/>
      <path id="Trazado_384" data-name="Trazado 384" d="M48.692,29.629c-.021-.562-.488-.739-.9-.739-.311,0-.835.086-.835.641,0,.3.217.409.433.458l1.041.24a.942.942,0,0,1,.823.974c0,.862-.8,1.1-1.423,1.1a1.459,1.459,0,0,1-1.1-.352,1.128,1.128,0,0,1-.37-.923h.46c0,.659.54.851,1,.851.354,0,.954-.09.954-.614,0-.38-.177-.5-.776-.646l-.746-.168a.879.879,0,0,1-.775-.857,1.114,1.114,0,0,1,1.253-1.127c1.271,0,1.4.762,1.42,1.161Z" transform="translate(4.667 2.865)" fill="#161615"/>
      <path id="Trazado_385" data-name="Trazado 385" d="M49.905,32.287h-.486V28.645h1.636a.994.994,0,0,1,1.082,1.025,1.017,1.017,0,0,1-1.082,1.08H49.905Zm0-1.959h.984c.439,0,.741-.163.741-.654,0-.462-.317-.606-.721-.606h-1Z" transform="translate(4.974 2.883)" fill="#161615"/>
      <path id="Trazado_386" data-name="Trazado 386" d="M52.477,31.226,52.1,32.287h-.508l1.368-3.644h.56l1.32,3.644h-.54l-.357-1.061Zm1.283-.437-.542-1.606H53.21l-.58,1.606Z" transform="translate(5.192 2.883)" fill="#161615"/>
      <path id="Trazado_387" data-name="Trazado 387" d="M57.419,28.737H57.9v3.639h-.554L55.49,29.437h-.012v2.939h-.472V28.737h.578l1.822,2.938h.013Zm-.053-1.009c-.036.3-.217.553-.506.553a.9.9,0,0,1-.3-.067l-.131-.047a1.084,1.084,0,0,0-.31-.075c-.136,0-.2.094-.24.223h-.245c.043-.3.187-.542.532-.542a.929.929,0,0,1,.343.075l.111.048a.8.8,0,0,0,.239.064c.2,0,.236-.136.255-.232Z" transform="translate(5.537 2.791)" fill="#161615"/>
      <path id="Trazado_388" data-name="Trazado 388" d="M59.824,32.3a1.923,1.923,0,0,1,0-3.835,1.765,1.765,0,0,1,1.776,1.92A1.763,1.763,0,0,1,59.824,32.3m0-3.4a1.309,1.309,0,0,0-1.266,1.483,1.283,1.283,0,1,0,2.536,0,1.313,1.313,0,0,0-1.27-1.483" transform="translate(5.843 2.865)" fill="#161615"/>
      <path id="Trazado_389" data-name="Trazado 389" d="M62.056,31.851H63.9v.434H61.563V28.646h.493Z" transform="translate(6.197 2.883)" fill="#161615"/>
      <path id="Trazado_390" data-name="Trazado 390" d="M65.424,28.645H66.9a1.562,1.562,0,0,1,1.533,1.768c0,.82-.351,1.874-1.553,1.874H65.424Zm.491,3.218h.952c.642,0,1.057-.5,1.057-1.417s-.418-1.38-1.09-1.38h-.919Z" transform="translate(6.585 2.883)" fill="#161615"/>
      <path id="Trazado_391" data-name="Trazado 391" d="M71.351,32.284H68.663V28.645h2.653v.435H69.153V30.2h2v.437h-2V31.85h2.2Z" transform="translate(6.911 2.883)" fill="#161615"/>
      <path id="Trazado_392" data-name="Trazado 392" d="M72.771,28.645h1.476a1.561,1.561,0,0,1,1.531,1.768c0,.82-.356,1.874-1.553,1.874H72.771Zm.49,3.218h.956c.641,0,1.052-.5,1.052-1.417s-.419-1.38-1.092-1.38h-.917Z" transform="translate(7.325 2.883)" fill="#161615"/>
      <path id="Trazado_393" data-name="Trazado 393" d="M78.582,32.284H75.893V28.645h2.654v.435H76.383V30.2h1.994v.437H76.383V31.85h2.2Z" transform="translate(7.639 2.883)" fill="#161615"/>
      <path id="Trazado_394" data-name="Trazado 394" d="M79.123,32.288h-.494V28.644h1.685c.6,0,1.2.21,1.2.98a.9.9,0,0,1-.511.871c.208.09.419.179.438.687l.032.66c0,.2.027.277.179.367v.08h-.6a4.317,4.317,0,0,1-.087-.915c0-.3-.056-.652-.647-.652H79.123Zm0-1.983h1.138c.362,0,.74-.094.74-.63,0-.564-.411-.608-.654-.608H79.123Z" transform="translate(7.914 2.883)" fill="#161615"/>
      <path id="Trazado_395" data-name="Trazado 395" d="M84.79,32.284V30.135c0-.108.01-.57.01-.909h-.01l-1.026,3.058h-.485l-1.026-3.05h-.01c0,.331.01.794.01.9v2.148h-.477V28.645h.7l1.04,3.079h.012l1.031-3.079h.7v3.639Z" transform="translate(8.231 2.883)" fill="#161615"/>
      <path id="Trazado_396" data-name="Trazado 396" d="M86.228,31.226l-.383,1.061h-.5l1.367-3.644h.557l1.323,3.644h-.539l-.363-1.061Zm1.281-.437-.538-1.606h-.009l-.582,1.606Z" transform="translate(8.59 2.883)" fill="#161615"/>
      <path id="Trazado_397" data-name="Trazado 397" d="M87.641,28.646H90.6v.435H89.367v3.207h-.492V29.081H87.641Z" transform="translate(8.821 2.883)" fill="#161615"/>
      <path id="Trazado_398" data-name="Trazado 398" d="M92.285,32.3a1.923,1.923,0,0,1,0-3.835,1.765,1.765,0,0,1,1.776,1.92A1.763,1.763,0,0,1,92.285,32.3m0-3.4a1.312,1.312,0,0,0-1.27,1.483,1.283,1.283,0,1,0,2.536,0A1.31,1.31,0,0,0,92.285,28.9" transform="translate(9.11 2.865)" fill="#161615"/>
      <path id="Trazado_399" data-name="Trazado 399" d="M94.676,31.851H96.52v.434H94.183V28.646h.493Z" transform="translate(9.48 2.883)" fill="#161615"/>
      <path id="Trazado_400" data-name="Trazado 400" d="M98.307,32.3a1.763,1.763,0,0,1-1.776-1.915,1.782,1.782,0,1,1,3.554,0A1.764,1.764,0,0,1,98.307,32.3m0-3.4a1.311,1.311,0,0,0-1.268,1.483,1.282,1.282,0,1,0,2.533,0A1.31,1.31,0,0,0,98.307,28.9" transform="translate(9.716 2.865)" fill="#161615"/>
      <path id="Trazado_401" data-name="Trazado 401" d="M101.894,30.259h1.6v1.948h-.319l-.118-.469a1.5,1.5,0,0,1-1.2.565,1.437,1.437,0,0,1-1.116-.414,1.931,1.931,0,0,1-.577-1.533,1.752,1.752,0,0,1,1.729-1.888,1.468,1.468,0,0,1,1.54,1.2h-.477a1.018,1.018,0,0,0-1.091-.762c-.654,0-1.191.521-1.191,1.477,0,.737.242,1.5,1.207,1.5a1.153,1.153,0,0,0,.748-.232,1.125,1.125,0,0,0,.4-.969h-1.135Z" transform="translate(10.082 2.865)" fill="#161615"/>
      <path id="Trazado_402" data-name="Trazado 402" d="M104.329,32.381h-.489V28.742h.489Zm-.131-3.992h-.341l.451-.718h.548Z" transform="translate(10.452 2.785)" fill="#161615"/>
      <path id="Trazado_403" data-name="Trazado 403" d="M105.655,31.226l-.382,1.061h-.508l1.375-3.644h.558l1.315,3.644h-.538l-.36-1.061Zm1.283-.437-.538-1.606h-.011l-.583,1.606Z" transform="translate(10.545 2.883)" fill="#161615"/>
      <path id="Trazado_404" data-name="Trazado 404" d="M29.134,37.713H26.442V34.069H29.1v.44H26.937v1.114h1.992v.437H26.937v1.212h2.2Z" transform="translate(2.661 3.429)" fill="#161615"/>
      <path id="Trazado_405" data-name="Trazado 405" d="M31.334,35.057a.8.8,0,0,0-.9-.74c-.31,0-.832.086-.832.641,0,.307.217.409.431.46l1.039.236a.951.951,0,0,1,.827.975c0,.864-.8,1.1-1.426,1.1a1.436,1.436,0,0,1-1.1-.35,1.126,1.126,0,0,1-.37-.925h.461c0,.66.538.853,1,.853.358,0,.953-.091.953-.614,0-.379-.178-.5-.775-.644l-.743-.172a.882.882,0,0,1-.779-.859,1.114,1.114,0,0,1,1.251-1.126c1.275,0,1.4.761,1.423,1.162Z" transform="translate(2.919 3.411)" fill="#161615"/>
      <path id="Trazado_406" data-name="Trazado 406" d="M31.591,34.069H34.55v.437H33.317v3.207h-.49V34.506H31.591Z" transform="translate(3.18 3.429)" fill="#161615"/>
      <path id="Trazado_407" data-name="Trazado 407" d="M37.079,37.808H34.391V34.166h2.653V34.6H34.886V35.72H36.88v.434H34.886v1.222h2.193Zm-1.316-4h-.341l.451-.715h.548Z" transform="translate(3.462 3.331)" fill="#161615"/>
      <path id="Trazado_408" data-name="Trazado 408" d="M36.791,34.069h2.955v.437H38.516v3.207h-.5V34.506H36.791Z" transform="translate(3.703 3.429)" fill="#161615"/>
      <rect id="Rectángulo_1471" data-name="Rectángulo 1471" width="0.491" height="3.642" transform="translate(43.989 37.496)" fill="#161615"/>
      <path id="Trazado_409" data-name="Trazado 409" d="M43.637,35.086a.951.951,0,0,0-1.021-.754c-.657,0-1.191.485-1.191,1.445,0,.854.3,1.515,1.2,1.515.321,0,.876-.151,1.041-1h.48a1.539,1.539,0,0,1-1.6,1.437c-.823,0-1.636-.536-1.636-1.936a1.7,1.7,0,0,1,1.7-1.9,1.381,1.381,0,0,1,1.5,1.192Z" transform="translate(4.118 3.411)" fill="#161615"/>
      <path id="Trazado_410" data-name="Trazado 410" d="M44.932,36.652l-.382,1.061h-.506l1.369-3.644h.558l1.32,3.644h-.539l-.36-1.061Zm1.283-.437-.539-1.6h-.011l-.582,1.6Z" transform="translate(4.433 3.429)" fill="#161615"/>
      <path id="Trazado_411" data-name="Trazado 411" d="M50.212,37.713h-.494V36.247l-1.373-2.178h.573l1.048,1.75,1.042-1.75h.58l-1.377,2.178Z" transform="translate(4.866 3.429)" fill="#161615"/>
      <path id="Trazado_412" data-name="Trazado 412" d="M52.244,34.069H55.2v.437H53.97v3.207h-.494V34.506H52.244Z" transform="translate(5.259 3.429)" fill="#161615"/>
      <path id="Trazado_413" data-name="Trazado 413" d="M57.85,37.713H55.163V34.069h2.653v.44H55.657v1.114h1.989v.437H55.657v1.212H57.85Z" transform="translate(5.552 3.429)" fill="#161615"/>
      <path id="Trazado_414" data-name="Trazado 414" d="M58.286,37.713h-.491V34.072h1.683c.6,0,1.2.207,1.2.977a.894.894,0,0,1-.506.871c.2.089.413.181.436.686l.028.658c.008.2.03.28.185.368v.081h-.605a4.7,4.7,0,0,1-.085-.912c0-.3-.061-.649-.648-.649H58.286Zm0-1.983h1.138c.363,0,.744-.095.744-.63,0-.562-.412-.611-.655-.611H58.286Z" transform="translate(5.817 3.429)" fill="#161615"/>
      <path id="Trazado_415" data-name="Trazado 415" d="M61.436,36.652l-.38,1.061h-.509l1.369-3.644h.56l1.317,3.644h-.537L62.9,36.652Zm1.286-.437-.539-1.6h-.01l-.579,1.6Z" transform="translate(6.094 3.429)" fill="#161615"/>
      <path id="Trazado_416" data-name="Trazado 416" d="M64.445,37.712h-.489V34.074H65.59A.99.99,0,0,1,66.67,35.1a1.014,1.014,0,0,1-1.08,1.082H64.445Zm0-1.956h.983c.437,0,.737-.164.737-.657,0-.462-.314-.609-.721-.609h-1Z" transform="translate(6.437 3.429)" fill="#161615"/>
      <path id="Trazado_417" data-name="Trazado 417" d="M69.367,37.808h-2.69V34.166h2.654V34.6H67.171V35.72h1.992v.434H67.171v1.222h2.2Zm-1.316-4h-.343l.45-.715H68.7Z" transform="translate(6.711 3.331)" fill="#161615"/>
      <path id="Trazado_418" data-name="Trazado 418" d="M72.435,33.981v2.364a1.323,1.323,0,0,1-1.466,1.376,1.264,1.264,0,0,1-1.4-1.308V33.981h.492v2.295c0,.79.481,1.012.92,1.012a.891.891,0,0,0,.961-1v-2.3Z" transform="translate(7.002 3.42)" fill="#161615"/>
      <path id="Trazado_419" data-name="Trazado 419" d="M72.524,34.069h2.956v.437H74.25v3.207h-.49V34.506H72.524Z" transform="translate(7.3 3.429)" fill="#161615"/>
      <rect id="Rectángulo_1472" data-name="Rectángulo 1472" width="0.494" height="3.642" transform="translate(82.934 37.496)" fill="#161615"/>
      <path id="Trazado_420" data-name="Trazado 420" d="M78.971,35.086a.95.95,0,0,0-1.02-.754c-.659,0-1.19.485-1.19,1.445,0,.854.306,1.515,1.2,1.515.32,0,.874-.151,1.041-1h.477a1.537,1.537,0,0,1-1.6,1.437c-.818,0-1.633-.536-1.633-1.936a1.7,1.7,0,0,1,1.7-1.9,1.375,1.375,0,0,1,1.495,1.192Z" transform="translate(7.675 3.411)" fill="#161615"/>
      <path id="Trazado_421" data-name="Trazado 421" d="M80.435,36.652l-.387,1.061h-.5l1.37-3.644h.56l1.315,3.644h-.537l-.36-1.061Zm1.28-.437-.536-1.6h-.011l-.584,1.6Z" transform="translate(8.007 3.429)" fill="#161615"/>
      <path id="Trazado_422" data-name="Trazado 422" d="M13.7,6.244s.471-.2.27,1.681-.605,4.246-.944,7.009a30.988,30.988,0,0,1-.741,4.178A14.458,14.458,0,0,0,11.942,21c-.132,1.142-.2,2.9-.269,3.23s-.2,1.415-.2,1.415l-.273.405-.069,1.55-.2,1.08v1.345l-.141.475-.131.94s.338-.138.066.742a16.049,16.049,0,0,0-.269,3.1l.133,2.224a2.776,2.776,0,0,0,.474,1.618,6.814,6.814,0,0,0,2.559,2.421,11.588,11.588,0,0,0,2.627.948,17.048,17.048,0,0,0,3.638.6c.271,0-.2.81.271,0s.6-.539.6-1.683.136-1.751.336-3.843,1.012-11.989,1.148-12.326.875-10.985.875-10.985l.4-9.029L23.6,2.4l-.2-1.481a.48.48,0,0,0-.134-.543c-.27-.266-.333-.537-.874-.266s-1.215.675-2.494,1.277-3.235,1.352-3.235,1.352l-2.221.8a8.018,8.018,0,0,0-1.351.539,1.019,1.019,0,0,0-.266.945,4.227,4.227,0,0,0,.337.741Z" transform="translate(1.053 0)" fill="#161615" fill-rule="evenodd"/>
      <path id="Trazado_423" data-name="Trazado 423" d="M0,5.819.058,33.091s0,.174.875.288,1.752.293,2.865.413a26.389,26.389,0,0,0,4.316.117,8.754,8.754,0,0,0,2.106-.468c.408-.118.353-.118.7-.991a3.7,3.7,0,0,0,.411-1.99c0-1.052.116-7.65.116-7.65l-.293-11.62v-3.5L8.061,4.709s-1.054-.875-1.7-1.344a4.192,4.192,0,0,0-2.1-.933,3.578,3.578,0,0,0-1.811.294A6.8,6.8,0,0,0,.819,3.834L.177,5.064Z" transform="translate(0 0.244)" fill="#161615"/>
    </g>
  </g>
</svg>
