<?xml version="1.0" standalone="no"?>
<!DOCTYPE svg PUBLIC "-//W3C//DTD SVG 20010904//EN"
 "http://www.w3.org/TR/2001/REC-SVG-20010904/DTD/svg10.dtd">
<svg version="1.0" xmlns="http://www.w3.org/2000/svg"
 width="500.000000pt" height="55.000000pt" viewBox="0 0 500.000000 55.000000"
 preserveAspectRatio="xMidYMid meet">

<g transform="translate(0.000000,55.000000) scale(0.100000,-0.100000)"
fill="currentColor" stroke="none">
<path d="M2370 275 c0 -97 4 -155 10 -155 6 0 10 58 10 155 0 97 -4 155 -10
155 -6 0 -10 -58 -10 -155z"/>
<path d="M2691 409 c-64 -60 -49 -191 26 -220 22 -8 32 -6 56 11 28 21 29 21
42 3 13 -16 14 -12 15 39 0 35 5 58 13 61 6 3 -15 5 -48 5 -33 0 -50 -3 -37
-5 18 -4 22 -11 22 -41 0 -48 -12 -65 -41 -60 -23 3 -24 7 -27 88 -4 107 2
130 31 130 32 0 44 -11 67 -56 l19 -39 1 54 c0 42 -3 51 -13 43 -8 -7 -18 -7
-27 -2 -26 17 -75 11 -99 -11z"/>
<path d="M3458 424 c8 -4 12 -37 12 -114 0 -95 -2 -109 -17 -113 -10 -3 5 -5
32 -6 28 0 45 3 38 7 -8 5 -13 45 -15 117 l-3 110 -30 2 c-16 1 -24 0 -17 -3z"/>
<path d="M3767 416 c-8 -20 20 -43 35 -28 14 14 3 42 -16 42 -7 0 -16 -6 -19
-14z"/>
<path d="M4423 414 c-3 -8 -1 -20 6 -27 14 -14 47 15 37 32 -10 16 -36 13 -43
-5z"/>
<path d="M175 334 c-19 -20 -15 -38 10 -42 15 -3 17 1 11 22 -5 21 -3 26 13
26 20 0 42 -41 25 -47 -5 -2 -24 -12 -42 -23 -27 -16 -33 -26 -30 -48 3 -26 5
-27 68 -27 57 0 65 2 67 20 1 16 1 16 -3 2 -11 -35 -24 -5 -24 53 0 48 -4 61
-19 70 -28 15 -57 12 -76 -6z m63 -91 c-2 -27 -8 -39 -20 -41 -14 -3 -18 3
-18 25 0 28 15 53 33 53 4 0 7 -17 5 -37z"/>
<path d="M528 343 c8 -3 12 -28 12 -73 0 -45 -4 -70 -12 -73 -7 -3 3 -6 22 -6
l35 -1 -2 67 c-1 38 -2 74 -2 81 -1 7 -14 12 -33 11 -18 0 -27 -3 -20 -6z"/>
<path d="M596 341 c-3 -5 2 -8 12 -7 14 1 17 -9 20 -63 2 -45 -1 -67 -10 -72
-8 -6 0 -9 22 -9 l36 0 -6 68 c-4 38 -10 74 -14 80 -8 14 -52 16 -60 3z"/>
<path d="M932 338 c-16 -16 -15 -48 1 -48 21 0 28 12 16 26 -9 10 -7 15 4 20
22 8 37 -3 37 -27 0 -13 -10 -24 -30 -31 -35 -12 -54 -40 -45 -68 5 -16 15
-19 68 -18 57 1 76 9 77 32 0 6 -7 1 -15 -10 -13 -17 -14 -14 -15 42 0 46 -4
65 -18 77 -22 20 -63 22 -80 5z m50 -130 c-6 -6 -15 -7 -21 -4 -17 11 -13 42
7 62 16 17 17 16 20 -15 2 -19 -1 -38 -6 -43z"/>
<path d="M1301 324 c-43 -54 -13 -134 49 -134 27 0 60 33 47 47 -3 2 -8 -5
-12 -16 -7 -23 -34 -28 -53 -9 -15 15 -16 82 -2 109 6 10 18 19 26 19 12 0 14
-7 9 -30 -5 -23 -3 -30 8 -30 8 0 18 7 21 16 8 21 8 20 -10 38 -23 24 -60 19
-83 -10z"/>
<path d="M1660 330 c-24 -24 -27 -86 -4 -118 20 -29 67 -29 94 0 61 66 -26
182 -90 118z m64 -6 c9 -23 7 -97 -3 -113 -5 -8 -16 -11 -25 -8 -12 5 -16 20
-16 65 0 32 3 62 7 65 11 12 31 7 37 -9z"/>
<path d="M2022 338 c-24 -24 -14 -57 27 -82 48 -31 58 -45 40 -58 -12 -8 -12
-9 0 -6 21 6 35 33 28 51 -3 9 -24 28 -47 42 -41 26 -53 55 -23 55 9 0 27 -10
40 -22 l23 -21 0 24 c0 21 -5 24 -38 27 -21 1 -43 -3 -50 -10z"/>
<path d="M3102 338 c-16 -16 -15 -48 1 -48 21 0 28 12 16 26 -9 10 -7 15 4 20
22 8 37 -3 37 -27 0 -13 -10 -24 -30 -31 -35 -12 -54 -40 -45 -68 5 -16 15
-19 68 -18 57 1 76 9 77 32 0 6 -7 1 -15 -10 -13 -17 -14 -14 -15 42 0 46 -4
65 -18 77 -22 20 -63 22 -80 5z m50 -130 c-6 -6 -15 -7 -21 -4 -17 11 -13 42
7 62 16 17 17 16 20 -15 2 -19 -1 -38 -6 -43z"/>
<path d="M3758 343 c8 -3 12 -28 12 -73 0 -45 -4 -70 -12 -73 -7 -3 3 -6 22
-6 l35 -1 -3 80 -4 80 -31 -1 c-18 0 -26 -3 -19 -6z"/>
<path d="M4071 324 c-12 -15 -21 -39 -21 -54 0 -39 35 -80 69 -80 28 0 51 16
51 34 0 6 -5 3 -11 -6 -16 -28 -48 -22 -60 10 -15 38 0 106 25 110 15 3 17 -1
11 -28 -6 -27 -4 -31 11 -28 10 2 20 11 22 21 10 49 -63 65 -97 21z"/>
<path d="M4415 270 l0 -80 35 1 c19 0 29 3 23 6 -9 3 -13 29 -13 79 0 70 -1
74 -22 74 -22 0 -23 -4 -23 -80z"/>
<path d="M4725 334 c-19 -20 -15 -38 10 -42 15 -3 17 1 11 22 -5 21 -3 26 13
26 20 0 42 -41 25 -47 -5 -2 -24 -12 -42 -23 -27 -16 -33 -26 -30 -48 3 -26 5
-27 68 -27 57 0 65 2 67 20 1 16 1 16 -3 2 -11 -35 -24 -5 -24 53 0 48 -4 61
-19 70 -28 15 -57 12 -76 -6z m63 -91 c-2 -27 -8 -39 -20 -41 -14 -3 -18 3
-18 25 0 28 15 53 33 53 4 0 7 -17 5 -37z"/>
<path d="M2010 225 c0 -27 4 -30 32 -32 31 -2 31 -2 10 13 -12 8 -26 22 -31
32 -9 14 -10 12 -11 -13z"/>
</g>
</svg>
