<svg xmlns="http://www.w3.org/2000/svg" width="291.537" height="68" viewBox="0 0 291.537 68">
  <g id="Grupo_66" data-name="Grupo 66" transform="translate(46.092 -20.905)">
    <g id="Grupo_31" data-name="Grupo 31" transform="translate(-46.092 21.905)">
      <text id="_365" data-name="365" transform="translate(239.537 50)" fill="none" stroke="#242424" stroke-width="1" font-size="54" font-family="ProximaNova-Black, Proxima Nova" font-weight="800"><tspan x="-50.436" y="0">365</tspan></text>
      <path id="Trazado_12" data-name="Trazado 12" d="M80.526,0C89.117,0,94.412,4.236,97.3,9.12l-8.473,4.473a9.751,9.751,0,0,0-8.3-4.65c-6.413,0-10.945,4.943-10.945,11.358s4.532,11.356,10.945,11.356A12.214,12.214,0,0,0,87.939,29.3V26.009h-9V17.595H97.884V32.953A22.677,22.677,0,0,1,80.526,40.6c-11.71,0-21.243-7.826-21.243-20.3S68.815,0,80.526,0" transform="translate(-59.283 12.184)" fill="#c39400"/>
      <path id="Trazado_13" data-name="Trazado 13" d="M89.118,39.688V.439h28.774V8.972H99.238V15.5h18.243v8.591H99.238v7.062h18.654v8.532Z" transform="translate(-45.161 13.028)" fill="#c39400"/>
      <path id="Trazado_14" data-name="Trazado 14" d="M112.243,39.689V.439h16.475c12.355,0,21.241,7.414,21.241,19.6s-8.886,19.654-21.182,19.654Zm10.12-8.827h6.355c6.885,0,10.885-5,10.885-10.828,0-6.06-3.648-10.769-10.826-10.769h-6.413Z" transform="translate(-34.156 13.028)" fill="#c39400"/>
      <path id="Trazado_15" data-name="Trazado 15" d="M140.878,39.688V.439h28.774V8.972H151V15.5h18.243v8.591H151v7.062h18.654v8.532Z" transform="translate(-20.602 13.028)" fill="#c39400"/>
      <path id="Trazado_16" data-name="Trazado 16" d="M173.489,39.688V9.265h-11V.439h32.07V9.265H183.61V39.688Z" transform="translate(-10.374 13.028)" fill="#c39400"/>
    </g>
  </g>
</svg>
