<?xml version="1.0" encoding="UTF-8"?>
<!DOCTYPE svg PUBLIC "-//W3C//DTD SVG 1.1//EN" "http://www.w3.org/Graphics/SVG/1.1/DTD/svg11.dtd">
<svg version="1.2" width="81.49mm" height="84.4mm" viewBox="0 0 8149 8440" preserveAspectRatio="xMidYMid" fill-rule="evenodd" stroke-width="28.222" stroke-linejoin="round" xmlns="http://www.w3.org/2000/svg" xmlns:ooo="http://xml.openoffice.org/svg/export" xmlns:xlink="http://www.w3.org/1999/xlink" xmlns:presentation="http://sun.com/xmlns/staroffice/presentation" xmlns:smil="http://www.w3.org/2001/SMIL20/" xmlns:anim="urn:oasis:names:tc:opendocument:xmlns:animation:1.0" xmlns:svg="urn:oasis:names:tc:opendocument:xmlns:svg-compatible:1.0" xml:space="preserve">
 <defs class="ClipPathGroup">
  <clipPath id="presentation_clip_path" clipPathUnits="userSpaceOnUse">
   <rect x="0" y="0" width="8149" height="8440"/>
  </clipPath>
  <clipPath id="presentation_clip_path_shrink" clipPathUnits="userSpaceOnUse">
   <rect x="8" y="8" width="8133" height="8424"/>
  </clipPath>
 </defs>
 <defs class="TextShapeIndex">
  <g ooo:slide="id1" ooo:id-list="id3"/>
 </defs>
 <defs class="EmbeddedBulletChars">
  <g id="bullet-char-template-57356" transform="scale(0.00048828125,-0.00048828125)">
   <path d="M 580,1141 L 1163,571 580,0 -4,571 580,1141 Z"/>
  </g>
  <g id="bullet-char-template-57354" transform="scale(0.00048828125,-0.00048828125)">
   <path d="M 8,1128 L 1137,1128 1137,0 8,0 8,1128 Z"/>
  </g>
  <g id="bullet-char-template-10146" transform="scale(0.00048828125,-0.00048828125)">
   <path d="M 174,0 L 602,739 174,1481 1456,739 174,0 Z M 1358,739 L 309,1346 659,739 1358,739 Z"/>
  </g>
  <g id="bullet-char-template-10132" transform="scale(0.00048828125,-0.00048828125)">
   <path d="M 2015,739 L 1276,0 717,0 1260,543 174,543 174,936 1260,936 717,1481 1274,1481 2015,739 Z"/>
  </g>
  <g id="bullet-char-template-10007" transform="scale(0.00048828125,-0.00048828125)">
   <path d="M 0,-2 C -7,14 -16,27 -25,37 L 356,567 C 262,823 215,952 215,954 215,979 228,992 255,992 264,992 276,990 289,987 310,991 331,999 354,1012 L 381,999 492,748 772,1049 836,1024 860,1049 C 881,1039 901,1025 922,1006 886,937 835,863 770,784 769,783 710,716 594,584 L 774,223 C 774,196 753,168 711,139 L 727,119 C 717,90 699,76 672,76 641,76 570,178 457,381 L 164,-76 C 142,-110 111,-127 72,-127 30,-127 9,-110 8,-76 1,-67 -2,-52 -2,-32 -2,-23 -1,-13 0,-2 Z"/>
  </g>
  <g id="bullet-char-template-10004" transform="scale(0.00048828125,-0.00048828125)">
   <path d="M 285,-33 C 182,-33 111,30 74,156 52,228 41,333 41,471 41,549 55,616 82,672 116,743 169,778 240,778 293,778 328,747 346,684 L 369,508 C 377,444 397,411 428,410 L 1163,1116 C 1174,1127 1196,1133 1229,1133 1271,1133 1292,1118 1292,1087 L 1292,965 C 1292,929 1282,901 1262,881 L 442,47 C 390,-6 338,-33 285,-33 Z"/>
  </g>
  <g id="bullet-char-template-9679" transform="scale(0.00048828125,-0.00048828125)">
   <path d="M 813,0 C 632,0 489,54 383,161 276,268 223,411 223,592 223,773 276,916 383,1023 489,1130 632,1184 813,1184 992,1184 1136,1130 1245,1023 1353,916 1407,772 1407,592 1407,412 1353,268 1245,161 1136,54 992,0 813,0 Z"/>
  </g>
  <g id="bullet-char-template-8226" transform="scale(0.00048828125,-0.00048828125)">
   <path d="M 346,457 C 273,457 209,483 155,535 101,586 74,649 74,723 74,796 101,859 155,911 209,963 273,989 346,989 419,989 480,963 531,910 582,859 608,796 608,723 608,648 583,586 532,535 482,483 420,457 346,457 Z"/>
  </g>
  <g id="bullet-char-template-8211" transform="scale(0.00048828125,-0.00048828125)">
   <path d="M -4,459 L 1135,459 1135,606 -4,606 -4,459 Z"/>
  </g>
  <g id="bullet-char-template-61548" transform="scale(0.00048828125,-0.00048828125)">
   <path d="M 173,740 C 173,903 231,1043 346,1159 462,1274 601,1332 765,1332 928,1332 1067,1274 1183,1159 1299,1043 1357,903 1357,740 1357,577 1299,437 1183,322 1067,206 928,148 765,148 601,148 462,206 346,322 231,437 173,577 173,740 Z"/>
  </g>
 </defs>
 <g>
  <g id="id2" class="Master_Slide">
   <g id="bg-id2" class="Background"/>
   <g id="bo-id2" class="BackgroundObjects"/>
  </g>
 </g>
 <g class="SlideGroup">
  <g>
   <g id="container-id1">
    <g id="id1" class="Slide" clip-path="url(#presentation_clip_path)">
     <g class="Page">
      <g class="Graphic">
       <g id="id3">
        <rect class="BoundingBox" stroke="none" fill="none" x="0" y="-13" width="8150" height="8467"/>
        <defs>
         <clipPath id="clip_path_1" clipPathUnits="userSpaceOnUse">
          <path d="M 0,-13 L 8149,-13 8149,8453 0,8453 0,-13 Z"/>
         </clipPath>
        </defs>
        <g clip-path="url(#clip_path_1)"/>
        <defs>
         <clipPath id="clip_path_2" clipPathUnits="userSpaceOnUse">
          <path d="M 14,14 L 8136,14 8136,8427 14,8427 14,14 Z"/>
         </clipPath>
        </defs>
        <g clip-path="url(#clip_path_2)">
         <path fill="rgb(90,166,208)" fill-opacity="0.969" stroke="none" d="M 4849,161 C 4819,409 4784,656 4744,902 4510,1122 4282,1347 4055,1577 3940,1640 3826,1702 3710,1763 3691,1781 3682,1803 3684,1829 3598,1789 3510,1754 3419,1723 3419,1683 3437,1653 3472,1631 3405,1615 3343,1628 3286,1670 3216,1626 3146,1582 3075,1538 3172,1477 3278,1428 3392,1392 3303,1338 3223,1346 3155,1418 3094,1431 3031,1436 2969,1431 2985,1335 2994,1238 2995,1140 3030,1136 3061,1145 3088,1167 3082,1115 3060,1066 3022,1022 3223,1044 3356,961 3419,770 3546,763 3643,705 3710,598 3753,580 3785,593 3803,637 3770,541 3793,457 3870,385 4071,311 4257,210 4427,81 4442,86 4455,95 4466,107 4503,240 4477,356 4386,452 4373,477 4369,503 4373,531 4409,535 4445,531 4479,518 4545,341 4669,223 4849,161 L 4849,161 4849,161 Z"/>
         <path fill="rgb(117,183,213)" fill-opacity="0.98" stroke="none" d="M 4982,1 C 5017,1 5053,1 5088,1 5078,88 5042,163 4982,226 5038,211 5095,188 5155,161 5168,169 5181,178 5194,187 5225,275 5256,363 5288,452 5340,238 5459,185 5645,292 5684,343 5728,387 5777,425 5458,785 5109,1111 4731,1405 4718,1380 4713,1354 4718,1326 4726,1185 4735,1043 4744,902 4784,656 4819,409 4849,161 4914,123 4957,70 4982,1 L 4982,1 4982,1 Z"/>
         <path fill="rgb(117,178,212)" stroke="none" d="M 5777,425 C 5910,514 6043,602 6175,690 6218,743 6263,796 6307,849 5758,1238 5202,1619 4638,1988 4657,1763 4683,1543 4718,1326 4713,1354 4718,1380 4731,1405 5109,1111 5458,785 5777,425 L 5777,425 5777,425 Z"/>
         <path fill="rgb(83,155,204)" fill-opacity="0.761" stroke="none" d="M 5645,292 C 5871,361 6047,494 6175,690 6043,602 5910,514 5777,425 5728,387 5684,343 5645,292 L 5645,292 5645,292 Z"/>
         <path fill="rgb(117,175,211)" stroke="none" d="M 6307,849 C 6351,880 6391,915 6427,955 6451,949 6472,940 6493,929 6493,938 6493,946 6493,955 6358,1129 6209,1293 6042,1446 5660,1715 5281,1984 4903,2253 4797,2253 4691,2253 4585,2253 4567,2253 4558,2244 4558,2227 4575,2224 4588,2215 4599,2200 4603,2125 4616,2054 4638,1988 5202,1619 5758,1238 6307,849 L 6307,849 6307,849 Z"/>
         <path fill="rgb(96,165,209)" stroke="none" d="M 4744,902 C 4735,1043 4726,1185 4718,1326 4683,1543 4657,1763 4638,1988 4616,2054 4603,2125 4599,2200 4588,2215 4575,2224 4558,2227 4392,2156 4224,2085 4055,2015 3932,1953 3809,1891 3684,1829 3682,1803 3691,1781 3710,1763 3826,1702 3940,1640 4055,1577 4282,1347 4510,1122 4744,902 L 4744,902 4744,902 Z"/>
         <path fill="rgb(89,154,205)" fill-opacity="0.91" stroke="none" d="M 6493,955 C 6493,946 6493,938 6493,929 6683,922 6868,945 7049,994 7063,1108 7046,1218 6997,1326 6854,1229 6713,1131 6573,1035 6554,999 6528,973 6493,955 L 6493,955 6493,955 Z"/>
         <path fill="rgb(117,173,211)" stroke="none" d="M 6493,955 C 6528,973 6554,999 6573,1035 6306,1261 6050,1504 5804,1763 5994,1664 6179,1558 6360,1446 6090,1712 5825,1981 5566,2253 5344,2253 5124,2253 4903,2253 5281,1984 5660,1715 6042,1446 6209,1293 6358,1129 6493,955 L 6493,955 6493,955 Z"/>
         <path fill="rgb(119,171,211)" fill-opacity="0.988" stroke="none" d="M 6573,1035 C 6713,1131 6854,1229 6997,1326 6935,1382 6881,1448 6838,1525 6585,1557 6563,1641 6771,1776 6782,1814 6795,1849 6810,1883 6632,1995 6454,2114 6281,2240 6435,2244 6586,2258 6731,2279 6581,2279 6431,2279 6281,2279 6043,2267 5804,2259 5566,2253 5825,1981 6090,1712 6360,1446 6179,1558 5994,1664 5804,1763 6050,1504 6306,1261 6573,1035 L 6573,1035 6573,1035 Z"/>
         <path fill="rgb(130,201,217)" fill-opacity="0.98" stroke="none" d="M 3234,1829 C 2930,2120 2629,2416 2333,2716 2317,2730 2299,2734 2279,2731 2224,2644 2163,2565 2094,2492 2004,2384 1924,2268 1856,2147 2018,2106 2186,2076 2359,2055 2447,1975 2535,1896 2624,1816 2676,1791 2729,1769 2783,1750 2844,1801 2893,1863 2929,1935 2937,1656 3038,1621 3234,1829 L 3234,1829 3234,1829 Z"/>
         <path fill="rgb(129,196,216)" fill-opacity="0.988" stroke="none" d="M 3419,1723 C 3510,1754 3598,1789 3684,1829 3809,1891 3932,1953 4055,2015 3587,2404 3119,2792 2651,3181 2580,3101 2509,3022 2438,2942 2386,2871 2333,2800 2279,2731 2299,2734 2317,2730 2333,2716 2629,2416 2930,2120 3234,1829 3259,1867 3268,1911 3260,1962 3314,1967 3367,1962 3419,1948 3365,1867 3365,1792 3419,1723 L 3419,1723 3419,1723 Z"/>
         <path fill="rgb(120,166,211)" fill-opacity="0.961" stroke="none" d="M 6810,1883 C 6833,1963 6882,2024 6956,2068 6965,2059 6974,2050 6983,2042 7001,2120 7014,2200 7023,2279 6926,2279 6829,2279 6731,2279 6586,2258 6435,2244 6281,2240 6454,2114 6632,1995 6810,1883 L 6810,1883 6810,1883 Z"/>
         <path fill="rgb(115,177,203)" fill-opacity="0.969" stroke="none" d="M 1777,2147 C 1780,2167 1776,2185 1763,2200 1293,2674 821,3143 346,3605 243,3612 146,3604 54,3577 78,3558 95,3532 107,3499 81,3437 45,3385 1,3340 1,3295 1,3252 1,3207 121,3180 191,3106 213,2982 266,2977 318,2981 372,2995 377,2909 338,2856 253,2836 233,2794 238,2753 266,2716 342,2675 418,2635 492,2598 558,2613 624,2618 690,2611 764,2558 835,2501 902,2438 958,2477 1020,2495 1088,2492 1093,2434 1072,2389 1022,2359 1004,2315 1004,2271 1022,2227 1156,2188 1267,2113 1353,2001 1396,1984 1441,1984 1485,2001 1569,2079 1666,2127 1777,2147 L 1777,2147 1777,2147 Z"/>
         <path fill="rgb(128,190,215)" stroke="none" d="M 4055,2015 C 4224,2085 4392,2156 4558,2227 4558,2244 4567,2253 4585,2253 4585,2262 4585,2271 4585,2279 4064,2748 3551,3224 3048,3710 3039,3710 3030,3710 3022,3710 2888,3540 2763,3364 2651,3181 3119,2792 3587,2404 4055,2015 L 4055,2015 4055,2015 Z"/>
         <path fill="rgb(153,204,220)" stroke="none" d="M 4585,2279 C 4585,2271 4585,2262 4585,2253 4691,2253 4797,2253 4903,2253 5124,2253 5344,2253 5566,2253 5804,2259 6043,2267 6281,2279 6092,2482 5898,2680 5697,2876 5630,2915 5559,2945 5486,2968 5426,2944 5373,2909 5327,2862 5095,2662 4856,2468 4612,2279 4603,2279 4593,2279 4585,2279 L 4585,2279 4585,2279 Z"/>
         <path fill="rgb(159,203,221)" stroke="none" d="M 6281,2279 C 6431,2279 6581,2279 6731,2279 6829,2279 6926,2279 7023,2279 7039,2303 7048,2330 7049,2359 6947,2410 6841,2458 6731,2505 6459,2789 6177,3060 5884,3313 5865,3304 5848,3295 5830,3286 5760,3216 5680,3153 5592,3101 5557,3056 5521,3013 5486,2968 5559,2945 5630,2915 5697,2876 5898,2680 6092,2482 6281,2279 L 6281,2279 6281,2279 Z"/>
         <path fill="rgb(121,181,206)" stroke="none" d="M 1777,2147 C 1803,2147 1829,2147 1856,2147 1924,2268 2004,2384 2094,2492 1722,2881 1343,3260 955,3631 751,3632 548,3623 346,3605 821,3143 1293,2674 1763,2200 1776,2185 1780,2167 1777,2147 L 1777,2147 1777,2147 Z"/>
         <path fill="rgb(165,201,221)" fill-opacity="0.988" stroke="none" d="M 7049,2359 C 7110,2417 7181,2460 7262,2492 7293,2575 7319,2659 7341,2744 7359,2761 7376,2761 7393,2744 7460,2673 7531,2606 7606,2544 7639,2586 7666,2629 7686,2677 7226,3004 6767,3331 6307,3657 6272,3640 6237,3622 6201,3605 6155,3533 6093,3480 6016,3446 5976,3395 5933,3351 5884,3313 6177,3060 6459,2789 6731,2505 6841,2458 6947,2410 7049,2359 L 7049,2359 7049,2359 Z"/>
         <path fill="rgb(187,219,225)" stroke="none" d="M 4585,2279 C 4593,2279 4603,2279 4612,2279 4645,2448 4679,2616 4718,2783 4360,3215 4016,3656 3684,4108 3472,3975 3260,3843 3048,3710 3551,3224 4064,2748 4585,2279 L 4585,2279 4585,2279 Z"/>
         <path fill="rgb(170,213,223)" stroke="none" d="M 4612,2279 C 4856,2468 5095,2662 5327,2862 5221,3082 5071,3268 4877,3419 4820,3208 4768,2997 4718,2783 4679,2616 4645,2448 4612,2279 L 4612,2279 4612,2279 Z"/>
         <path fill="rgb(185,202,219)" fill-opacity="0.969" stroke="none" d="M 7686,2677 C 7767,2734 7780,2805 7725,2889 7621,2980 7501,3047 7367,3088 7319,3170 7289,3254 7275,3340 7286,3352 7299,3361 7314,3366 7350,3326 7359,3286 7341,3247 7395,3231 7439,3244 7473,3286 7252,3485 7023,3670 6784,3843 6767,3834 6749,3825 6731,3816 6590,3773 6448,3728 6307,3684 6307,3676 6307,3666 6307,3657 6767,3331 7226,3004 7686,2677 L 7686,2677 7686,2677 Z"/>
         <path fill="rgb(128,187,209)" stroke="none" d="M 2094,2492 C 2163,2565 2224,2644 2279,2731 2333,2800 2386,2871 2438,2942 2210,3181 1980,3419 1750,3657 1670,3657 1590,3657 1511,3657 1363,3635 1212,3627 1061,3631 1026,3631 990,3631 955,3631 1343,3260 1722,2881 2094,2492 L 2094,2492 2094,2492 Z"/>
         <path fill="rgb(190,217,224)" stroke="none" d="M 4718,2783 C 4768,2997 4820,3208 4877,3419 4903,3543 4929,3666 4956,3790 4979,3920 5019,4043 5075,4161 5314,3857 5566,3565 5830,3286 5848,3295 5865,3304 5884,3313 5933,3351 5976,3395 6016,3446 5909,3565 5816,3698 5738,3843 5623,3958 5508,4072 5393,4188 5340,4312 5260,4418 5155,4505 5108,4412 5067,4315 5036,4214 4965,4271 4899,4333 4836,4399 4832,4391 4828,4382 4823,4373 4909,4288 4967,4191 4996,4081 4825,4265 4645,4433 4453,4585 4205,4434 3958,4285 3710,4134 3710,4117 3702,4108 3684,4108 4016,3656 4360,3215 4718,2783 L 4718,2783 4718,2783 Z"/>
         <path fill="rgb(178,214,223)" stroke="none" d="M 5327,2862 C 5373,2909 5426,2944 5486,2968 5521,3013 5557,3056 5592,3101 5489,3209 5405,3333 5340,3472 5225,3587 5111,3702 4996,3816 4986,3802 4973,3793 4956,3790 4929,3666 4903,3543 4877,3419 5071,3268 5221,3082 5327,2862 L 5327,2862 5327,2862 Z"/>
         <path fill="rgb(184,215,223)" stroke="none" d="M 5592,3101 C 5680,3153 5760,3216 5830,3286 5566,3565 5314,3857 5075,4161 5019,4043 4979,3920 4956,3790 4973,3793 4986,3802 4996,3816 5111,3702 5225,3587 5340,3472 5405,3333 5489,3209 5592,3101 L 5592,3101 5592,3101 Z"/>
         <path fill="rgb(136,192,213)" stroke="none" d="M 2438,2942 C 2509,3022 2580,3101 2651,3181 2763,3364 2888,3540 3022,3710 3004,3710 2987,3710 2969,3710 2713,3686 2457,3678 2201,3684 2050,3677 1900,3668 1750,3657 1980,3419 2210,3181 2438,2942 L 2438,2942 2438,2942 Z"/>
         <path fill="rgb(187,196,217)" fill-opacity="0.961" stroke="none" d="M 7473,3286 C 7611,3354 7700,3460 7738,3605 7538,3709 7379,3841 7262,4001 7100,3955 6941,3901 6784,3843 7023,3670 7252,3485 7473,3286 L 7473,3286 7473,3286 Z"/>
         <path fill="rgb(196,215,223)" stroke="none" d="M 6016,3446 C 6093,3480 6155,3533 6201,3605 6175,3603 6153,3611 6135,3631 5946,4000 5699,4327 5393,4611 5346,4696 5294,4774 5234,4849 5234,4926 5230,4997 5221,5062 5115,5000 5009,4938 4903,4877 4748,4785 4598,4688 4453,4585 4645,4433 4825,4265 4996,4081 4967,4191 4909,4288 4823,4373 4828,4382 4832,4391 4836,4399 4899,4333 4965,4271 5036,4214 5067,4315 5108,4412 5155,4505 5260,4418 5340,4312 5393,4188 5508,4072 5623,3958 5738,3843 5816,3698 5909,3565 6016,3446 L 6016,3446 6016,3446 Z"/>
         <path fill="rgb(201,216,224)" stroke="none" d="M 6201,3605 C 6237,3622 6272,3640 6307,3657 6307,3666 6307,3676 6307,3684 6236,3755 6175,3835 6121,3922 5844,4321 5551,4709 5247,5088 5231,5085 5222,5076 5221,5062 5230,4997 5234,4926 5234,4849 5294,4774 5346,4696 5393,4611 5699,4327 5946,4000 6135,3631 6153,3611 6175,3603 6201,3605 L 6201,3605 6201,3605 Z"/>
         <path fill="rgb(189,191,215)" fill-opacity="0.922" stroke="none" d="M 7738,3605 C 7768,3654 7759,3703 7712,3750 7788,3802 7815,3867 7791,3949 7755,3932 7720,3913 7686,3896 7676,3909 7667,3922 7658,3936 7695,3987 7723,4045 7738,4108 7737,4132 7728,4150 7712,4161 7641,4134 7570,4108 7499,4081 7418,4060 7339,4033 7262,4001 7379,3841 7538,3709 7738,3605 L 7738,3605 7738,3605 Z"/>
         <path fill="rgb(126,170,194)" fill-opacity="0.922" stroke="none" d="M 54,3577 C 146,3604 243,3612 346,3605 548,3623 751,3632 955,3631 990,3631 1026,3631 1061,3631 856,3698 653,3761 451,3816 411,3811 375,3793 346,3764 310,3802 266,3819 213,3816 217,3780 213,3744 200,3710 151,3797 106,3885 68,3975 53,3899 31,3828 1,3764 1,3719 1,3676 1,3631 19,3613 36,3596 54,3577 L 54,3577 54,3577 Z"/>
         <path fill="rgb(133,177,198)" fill-opacity="0.98" stroke="none" d="M 1061,3631 C 1212,3627 1363,3635 1511,3657 1173,3774 829,3879 478,3975 486,3916 477,3863 451,3816 653,3761 856,3698 1061,3631 L 1061,3631 1061,3631 Z"/>
         <path fill="rgb(141,184,201)" fill-opacity="0.988" stroke="none" d="M 1511,3657 C 1590,3657 1670,3657 1750,3657 1900,3668 2050,3677 2201,3684 2030,3749 1853,3806 1670,3857 1290,3948 910,4041 531,4134 510,4084 493,4032 478,3975 829,3879 1173,3774 1511,3657 L 1511,3657 1511,3657 Z"/>
         <path fill="rgb(151,191,205)" stroke="none" d="M 2201,3684 C 2457,3678 2713,3686 2969,3710 2673,3821 2372,3927 2068,4029 2070,3977 2096,3947 2147,3936 1703,3975 1266,4077 836,4240 825,4228 811,4219 796,4214 710,4249 622,4275 531,4294 543,4246 543,4192 531,4134 910,4041 1290,3948 1670,3857 1853,3806 2030,3749 2201,3684 L 2201,3684 2201,3684 Z"/>
         <path fill="rgb(216,215,224)" stroke="none" d="M 6307,3684 C 6289,3877 6281,4072 6281,4266 6273,4522 6264,4779 6254,5035 6242,5301 6225,5566 6201,5830 6192,6007 6184,6184 6175,6360 6175,6457 6175,6554 6175,6651 6124,6621 6083,6577 6056,6519 5899,6214 5736,5913 5566,5618 5763,5069 5957,4516 6149,3962 6147,3942 6138,3928 6121,3922 6175,3835 6236,3755 6307,3684 L 6307,3684 6307,3684 Z"/>
         <path fill="rgb(222,213,222)" stroke="none" d="M 6307,3684 C 6448,3728 6590,3773 6731,3816 6735,3836 6731,3853 6718,3870 6565,4000 6420,4132 6281,4266 6281,4072 6289,3877 6307,3684 L 6307,3684 6307,3684 Z"/>
         <path fill="rgb(153,167,196)" fill-opacity="0.988" stroke="none" d="M 2969,3710 C 2987,3710 3004,3710 3022,3710 3030,3710 3039,3710 3048,3710 3048,3745 3048,3781 3048,3816 2580,4195 2121,4585 1670,4982 1653,4982 1644,4991 1644,5009 1635,5009 1626,5009 1618,5009 1537,5011 1480,4975 1446,4903 1402,4938 1406,4973 1459,5009 1374,5047 1285,5073 1194,5088 1140,5053 1088,5017 1035,4982 1031,4963 1036,4945 1048,4929 1322,4659 1592,4385 1856,4108 1921,4071 1992,4045 2068,4029 2372,3927 2673,3821 2969,3710 L 2969,3710 2969,3710 Z"/>
         <path fill="rgb(159,166,196)" fill-opacity="0.988" stroke="none" d="M 3048,3816 C 3125,3964 3179,4124 3207,4294 2797,4690 2392,5091 1988,5499 1973,5511 1955,5515 1935,5512 1784,5437 1643,5349 1511,5247 1551,5211 1596,5181 1644,5155 1549,5120 1540,5072 1618,5009 1626,5009 1635,5009 1644,5009 1661,5009 1670,5000 1670,4982 2121,4585 2580,4195 3048,3816 L 3048,3816 3048,3816 Z"/>
         <path fill="rgb(219,208,221)" stroke="none" d="M 6731,3816 C 6749,3825 6767,3834 6784,3843 6941,3901 7100,3955 7262,4001 7339,4033 7418,4060 7499,4081 7085,4398 6670,4716 6254,5035 6264,4779 6273,4522 6281,4266 6420,4132 6565,4000 6718,3870 6731,3853 6735,3836 6731,3816 L 6731,3816 6731,3816 Z"/>
         <path fill="rgb(208,218,224)" stroke="none" d="M 3048,3710 C 3260,3843 3472,3975 3684,4108 3702,4108 3710,4117 3710,4134 3597,4291 3465,4433 3314,4558 3283,4468 3248,4380 3207,4294 3179,4124 3125,3964 3048,3816 3048,3781 3048,3745 3048,3710 L 3048,3710 3048,3710 Z"/>
         <path fill="rgb(153,196,207)" fill-opacity="0.98" stroke="none" d="M 2068,4029 C 1992,4045 1921,4071 1856,4108 1568,4195 1285,4292 1008,4399 880,4313 782,4339 716,4479 669,4489 625,4507 584,4532 511,4460 494,4381 531,4294 622,4275 710,4249 796,4214 811,4219 825,4228 836,4240 1266,4077 1703,3975 2147,3936 2096,3947 2070,3977 2068,4029 L 2068,4029 2068,4029 Z"/>
         <path fill="rgb(219,216,223)" stroke="none" d="M 6121,3922 C 6138,3928 6147,3942 6149,3962 5957,4516 5763,5069 5566,5618 5464,5452 5363,5284 5260,5114 4825,5643 4406,6181 4003,6731 3984,6731 3975,6722 3975,6705 3921,6549 3876,6390 3843,6227 4156,5797 4470,5364 4784,4929 4813,4889 4853,4871 4903,4877 5009,4938 5115,5000 5221,5062 5222,5076 5231,5085 5247,5088 5551,4709 5844,4321 6121,3922 L 6121,3922 6121,3922 Z"/>
         <path fill="rgb(149,168,195)" stroke="none" d="M 1856,4108 C 1592,4385 1322,4659 1048,4929 1036,4945 1031,4963 1035,4982 963,4946 893,4912 822,4877 825,4726 892,4612 1022,4532 1038,4485 1034,4441 1008,4399 1285,4292 1568,4195 1856,4108 L 1856,4108 1856,4108 Z"/>
         <path fill="rgb(216,203,219)" fill-opacity="0.98" stroke="none" d="M 7499,4081 C 7570,4108 7641,4134 7712,4161 7642,4277 7562,4388 7473,4492 7434,4505 7402,4492 7380,4453 7373,4495 7360,4534 7341,4572 7255,4579 7185,4614 7129,4677 7180,4744 7223,4815 7262,4890 7222,4931 7179,4966 7129,4995 7148,5013 7157,5035 7155,5062 6879,5254 6604,5452 6334,5658 6266,5701 6223,5757 6201,5830 6225,5566 6242,5301 6254,5035 6670,4716 7085,4398 7499,4081 L 7499,4081 7499,4081 Z"/>
         <path fill="rgb(165,165,197)" stroke="none" d="M 3207,4294 C 3248,4380 3283,4468 3314,4558 3316,4634 3333,4703 3366,4770 3350,4768 3337,4759 3327,4744 2998,5086 2658,5413 2307,5724 2201,5671 2094,5618 1988,5566 1971,5547 1953,5530 1935,5512 1955,5515 1973,5511 1988,5499 2392,5091 2797,4690 3207,4294 L 3207,4294 3207,4294 Z"/>
         <path fill="rgb(217,217,224)" stroke="none" d="M 3710,4134 C 3958,4285 4205,4434 4453,4585 4598,4688 4748,4785 4903,4877 4853,4871 4813,4889 4784,4929 4470,5364 4156,5797 3843,6227 3812,6169 3786,6108 3764,6042 3739,5923 3704,5809 3658,5697 3609,5528 3556,5361 3499,5194 3465,5049 3421,4908 3366,4770 3333,4703 3316,4634 3314,4558 3465,4433 3597,4291 3710,4134 L 3710,4134 3710,4134 Z"/>
         <path fill="rgb(146,171,195)" fill-opacity="0.69" stroke="none" d="M 716,4479 C 716,4514 716,4550 716,4585 662,4588 618,4569 584,4532 625,4507 669,4489 716,4479 L 716,4479 716,4479 Z"/>
         <path fill="rgb(171,165,198)" stroke="none" d="M 3366,4770 C 3421,4908 3465,5049 3499,5194 3218,5431 2953,5688 2703,5962 2660,5945 2615,5927 2571,5910 2483,5848 2395,5786 2307,5724 2658,5413 2998,5086 3327,4744 3337,4759 3350,4768 3366,4770 L 3366,4770 3366,4770 Z"/>
         <path fill="rgb(212,208,218)" fill-opacity="0.949" stroke="none" d="M 822,4877 C 893,4912 963,4946 1035,4982 1088,5017 1140,5053 1194,5088 1200,5215 1143,5294 1022,5327 1013,5390 991,5448 955,5499 887,5519 821,5542 757,5566 745,5508 758,5454 796,5406 758,5352 705,5326 637,5327 632,5290 638,5255 650,5221 723,5111 780,4997 822,4877 L 822,4877 822,4877 Z"/>
         <path fill="rgb(228,208,222)" stroke="none" d="M 5566,5618 C 5736,5913 5899,6214 6056,6519 6083,6577 6124,6621 6175,6651 6175,6660 6175,6669 6175,6678 6157,6678 6140,6678 6121,6678 6033,6678 5945,6678 5857,6678 5557,6687 5256,6696 4956,6705 4638,6711 4320,6720 4003,6731 4406,6181 4825,5643 5260,5114 5363,5284 5464,5452 5566,5618 L 5566,5618 5566,5618 Z"/>
         <path fill="rgb(213,199,218)" fill-opacity="0.98" stroke="none" d="M 7155,5062 C 7168,5086 7177,5112 7182,5142 7148,5223 7109,5303 7062,5379 7042,5421 7047,5457 7075,5486 6798,5705 6515,5922 6228,6134 6211,6213 6193,6287 6175,6360 6184,6184 6192,6007 6201,5830 6223,5757 6266,5701 6334,5658 6604,5452 6879,5254 7155,5062 L 7155,5062 7155,5062 Z"/>
         <path fill="rgb(178,164,198)" stroke="none" d="M 3499,5194 C 3556,5361 3609,5528 3658,5697 3465,5855 3279,6022 3101,6201 2987,6152 2881,6091 2783,6016 2751,6004 2725,5986 2703,5962 2953,5688 3218,5431 3499,5194 L 3499,5194 3499,5194 Z"/>
         <path fill="rgb(221,202,217)" fill-opacity="0.949" stroke="none" d="M 1511,5247 C 1643,5349 1784,5437 1935,5512 1953,5530 1971,5547 1988,5566 1848,5741 1698,5909 1538,6068 1441,6114 1366,6087 1313,5988 1304,5927 1295,5865 1286,5803 1232,5779 1175,5770 1114,5777 1114,5742 1114,5706 1114,5671 1247,5657 1380,5635 1511,5605 1475,5530 1448,5450 1432,5366 1432,5308 1459,5269 1511,5247 L 1511,5247 1511,5247 Z"/>
         <path fill="rgb(211,196,217)" fill-opacity="0.988" stroke="none" d="M 7686,5512 C 7440,5724 7184,5922 6917,6108 6796,6224 6682,6343 6573,6466 6452,6548 6320,6610 6175,6651 6175,6554 6175,6457 6175,6360 6193,6287 6211,6213 6228,6134 6515,5922 6798,5705 7075,5486 7108,5490 7138,5499 7169,5512 7311,5462 7457,5439 7606,5446 7644,5455 7670,5478 7686,5512 L 7686,5512 7686,5512 Z"/>
         <path fill="rgb(209,192,215)" fill-opacity="0.98" stroke="none" d="M 7686,5512 C 7775,5520 7846,5559 7897,5631 7856,5720 7829,5813 7817,5910 7413,6116 6998,6301 6573,6466 6682,6343 6796,6224 6917,6108 7184,5922 7440,5724 7686,5512 L 7686,5512 7686,5512 Z"/>
         <path fill="rgb(223,196,216)" fill-opacity="0.941" stroke="none" d="M 1988,5566 C 2094,5618 2201,5671 2307,5724 2395,5786 2483,5848 2571,5910 2447,6051 2315,6184 2174,6307 2149,6295 2127,6277 2107,6254 2060,6328 2021,6408 1988,6492 1786,6621 1564,6677 1326,6664 1343,6580 1365,6496 1392,6412 1437,6484 1459,6480 1459,6399 1447,6351 1438,6302 1432,6254 1501,6247 1568,6255 1631,6281 1692,6199 1749,6115 1803,6029 1716,6036 1628,6049 1538,6068 1698,5909 1848,5741 1988,5566 L 1988,5566 1988,5566 Z"/>
         <path fill="rgb(184,164,199)" stroke="none" d="M 3658,5697 C 3704,5809 3739,5923 3764,6042 3726,6047 3691,6060 3658,6082 3564,6180 3466,6273 3366,6360 3295,6324 3224,6289 3155,6254 3136,6236 3119,6218 3101,6201 3279,6022 3465,5855 3658,5697 L 3658,5697 3658,5697 Z"/>
         <path fill="rgb(223,192,215)" fill-opacity="0.961" stroke="none" d="M 2571,5910 C 2615,5927 2660,5945 2703,5962 2725,5986 2751,6004 2783,6016 2787,6035 2782,6053 2770,6068 2255,6588 1739,7100 1220,7605 1216,7490 1220,7375 1233,7260 1315,7235 1399,7227 1485,7234 1469,7151 1417,7111 1326,7115 1441,7000 1556,6885 1670,6771 1820,6678 1971,6585 2121,6492 2159,6436 2177,6374 2174,6307 2315,6184 2447,6051 2571,5910 L 2571,5910 2571,5910 Z"/>
         <path fill="rgb(219,179,213)" fill-opacity="0.988" stroke="none" d="M 7817,5910 C 7875,5951 7937,5987 8003,6016 7566,6247 7133,6485 6705,6731 6529,6709 6351,6691 6175,6678 6175,6669 6175,6660 6175,6651 6320,6610 6452,6548 6573,6466 6998,6301 7413,6116 7817,5910 L 7817,5910 7817,5910 Z"/>
         <path fill="rgb(224,189,215)" fill-opacity="0.988" stroke="none" d="M 2783,6016 C 2881,6091 2987,6152 3101,6201 3119,6218 3136,6236 3155,6254 2609,6814 2056,7369 1498,7923 1486,7938 1481,7957 1485,7976 1414,8011 1344,8046 1273,8082 1259,7922 1241,7764 1220,7605 1739,7100 2255,6588 2770,6068 2782,6053 2787,6035 2783,6016 L 2783,6016 2783,6016 Z"/>
         <path fill="rgb(217,174,210)" fill-opacity="0.969" stroke="none" d="M 8003,6016 C 8055,6042 8100,6077 8136,6121 8136,6184 8136,6245 8136,6307 8116,6432 8054,6533 7950,6612 7974,6659 7979,6708 7963,6757 7819,6706 7690,6733 7579,6836 7463,6834 7349,6825 7234,6810 7062,6776 6886,6750 6705,6731 7133,6485 7566,6247 8003,6016 L 8003,6016 8003,6016 Z"/>
         <path fill="rgb(225,185,215)" fill-opacity="0.988" stroke="none" d="M 3155,6254 C 3224,6289 3295,6324 3366,6360 3476,6436 3591,6507 3710,6572 3599,6746 3466,6905 3314,7049 3088,7166 2867,7290 2651,7420 2588,7415 2527,7420 2466,7433 2359,7498 2243,7542 2121,7566 2067,7618 2022,7675 1988,7738 1817,7810 1649,7889 1485,7976 1481,7957 1486,7938 1498,7923 2056,7369 2609,6814 3155,6254 L 3155,6254 3155,6254 Z"/>
         <path fill="rgb(192,164,200)" stroke="none" d="M 3764,6042 C 3786,6108 3812,6169 3843,6227 3876,6390 3921,6549 3975,6705 3879,6674 3791,6630 3710,6572 3591,6507 3476,6436 3366,6360 3466,6273 3564,6180 3658,6082 3691,6060 3726,6047 3764,6042 L 3764,6042 3764,6042 Z"/>
         <path fill="rgb(226,179,214)" stroke="none" d="M 3710,6572 C 3791,6630 3879,6674 3975,6705 3975,6722 3984,6731 4003,6731 4003,6748 3993,6757 3975,6757 3760,6861 3538,6958 3314,7049 3466,6905 3599,6746 3710,6572 L 3710,6572 3710,6572 Z"/>
         <path fill="rgb(236,179,217)" fill-opacity="0.988" stroke="none" d="M 5857,6678 C 5945,6678 6033,6678 6121,6678 6007,6784 5893,6890 5777,6996 5351,7320 4927,7652 4505,7990 4470,8011 4453,8042 4453,8082 4444,8082 4435,8082 4427,8082 4295,8161 4179,8258 4082,8373 3957,8375 3834,8367 3710,8347 3703,8288 3712,8235 3737,8188 3733,8216 3738,8242 3751,8267 4401,7754 5051,7237 5697,6718 5756,6712 5810,6699 5857,6678 L 5857,6678 5857,6678 Z"/>
         <path fill="rgb(236,189,220)" stroke="none" d="M 4956,6705 C 4927,6725 4891,6738 4849,6744 4540,7095 4195,7399 3816,7658 3816,7632 3816,7605 3816,7579 3884,7311 3937,7037 3975,6757 3993,6757 4003,6748 4003,6731 4320,6720 4638,6711 4956,6705 L 4956,6705 4956,6705 Z"/>
         <path fill="rgb(236,184,219)" stroke="none" d="M 5857,6678 C 5810,6699 5756,6712 5697,6718 5051,7237 4401,7754 3751,8267 3738,8242 3733,8216 3737,8188 3751,8018 3778,7850 3816,7684 3816,7676 3816,7667 3816,7658 4195,7399 4540,7095 4849,6744 4891,6738 4927,6725 4956,6705 5256,6696 5557,6687 5857,6678 L 5857,6678 5857,6678 Z"/>
         <path fill="rgb(232,153,209)" fill-opacity="0.941" stroke="none" d="M 3975,6757 C 3937,7037 3884,7311 3816,7579 3803,7458 3741,7414 3631,7446 3589,7430 3550,7413 3512,7393 3513,7281 3477,7184 3406,7101 3271,7183 3152,7285 3048,7406 2918,7450 2785,7454 2651,7420 2867,7290 3088,7166 3314,7049 3538,6958 3760,6861 3975,6757 L 3975,6757 3975,6757 Z"/>
         <path fill="rgb(234,176,218)" stroke="none" d="M 6175,6705 C 6175,6696 6175,6687 6175,6678 6351,6691 6529,6709 6705,6731 6886,6750 7062,6776 7234,6810 7081,6980 6895,7103 6678,7181 6661,7172 6642,7163 6625,7155 6484,6996 6334,6845 6175,6705 L 6175,6705 6175,6705 Z"/>
         <path fill="rgb(230,134,197)" fill-opacity="0.988" stroke="none" d="M 6121,6678 C 6140,6678 6157,6678 6175,6678 6175,6687 6175,6696 6175,6705 6197,6837 6224,6970 6254,7101 5891,7455 5547,7827 5221,8214 5179,8178 5131,8152 5075,8135 4928,8194 4782,8257 4638,8321 5017,7879 5397,7438 5777,6996 5893,6890 6007,6784 6121,6678 L 6121,6678 6121,6678 Z"/>
         <path fill="rgb(233,171,217)" fill-opacity="0.969" stroke="none" d="M 7234,6810 C 7349,6825 7463,6834 7579,6836 7472,6998 7375,7164 7288,7340 7175,7369 7070,7414 6969,7473 6943,7455 6917,7437 6890,7420 6819,7340 6749,7260 6678,7181 6895,7103 7081,6980 7234,6810 L 7234,6810 7234,6810 Z"/>
         <path fill="rgb(233,153,210)" stroke="none" d="M 6175,6705 C 6334,6845 6484,6996 6625,7155 6563,7214 6514,7284 6480,7367 6444,7402 6409,7437 6373,7473 6363,7458 6350,7449 6334,7446 6310,7331 6284,7217 6254,7101 6224,6970 6197,6837 6175,6705 L 6175,6705 6175,6705 Z"/>
         <path fill="rgb(231,139,202)" fill-opacity="0.988" stroke="none" d="M 5777,6996 C 5397,7438 5017,7879 4638,8321 4587,8337 4533,8347 4479,8347 4488,8253 4479,8165 4453,8082 4453,8042 4470,8011 4505,7990 4927,7652 5351,7320 5777,6996 L 5777,6996 5777,6996 Z"/>
         <path fill="rgb(229,129,190)" fill-opacity="0.988" stroke="none" d="M 6254,7101 C 6284,7217 6310,7331 6334,7446 6334,7464 6334,7482 6334,7499 6078,7774 5830,8056 5592,8347 5470,8294 5346,8249 5221,8214 5547,7827 5891,7455 6254,7101 L 6254,7101 6254,7101 Z"/>
         <path fill="rgb(232,145,203)" stroke="none" d="M 6625,7155 C 6642,7163 6661,7172 6678,7181 6749,7260 6819,7340 6890,7420 6864,7417 6842,7426 6824,7446 6734,7581 6654,7723 6586,7870 6549,7911 6509,7946 6466,7976 6430,7812 6385,7653 6334,7499 6334,7482 6334,7464 6334,7446 6350,7449 6363,7458 6373,7473 6409,7437 6444,7402 6480,7367 6514,7284 6563,7214 6625,7155 L 6625,7155 6625,7155 Z"/>
         <path fill="rgb(233,166,215)" fill-opacity="0.941" stroke="none" d="M 7288,7340 C 7280,7357 7270,7375 7262,7393 7379,7391 7440,7449 7447,7566 7397,7656 7352,7749 7314,7843 7199,7720 7085,7596 6969,7473 7070,7414 7175,7369 7288,7340 L 7288,7340 7288,7340 Z"/>
         <path fill="rgb(231,139,195)" fill-opacity="0.961" stroke="none" d="M 6890,7420 C 6917,7437 6943,7455 6969,7473 7085,7596 7199,7720 7314,7843 7312,7860 7302,7873 7288,7884 7158,7926 7061,7891 6997,7777 6913,7756 6833,7765 6758,7804 6755,7911 6750,8021 6745,8135 6687,8214 6612,8267 6519,8294 6511,8187 6492,8080 6466,7976 6509,7946 6549,7911 6586,7870 6654,7723 6734,7581 6824,7446 6842,7426 6864,7417 6890,7420 L 6890,7420 6890,7420 Z"/>
         <path fill="rgb(228,123,183)" fill-opacity="0.98" stroke="none" d="M 6334,7499 C 6385,7653 6430,7812 6466,7976 6492,8080 6511,8187 6519,8294 6354,8356 6186,8399 6016,8427 5910,8427 5804,8427 5697,8427 5656,8409 5621,8383 5592,8347 5830,8056 6078,7774 6334,7499 L 6334,7499 6334,7499 Z"/>
         <path fill="rgb(232,154,210)" fill-opacity="0.91" stroke="none" d="M 3816,7684 C 3778,7850 3751,8018 3737,8188 3712,8235 3703,8288 3710,8347 3537,8330 3440,8232 3419,8056 3433,7984 3467,7927 3525,7884 3623,7817 3720,7751 3816,7684 L 3816,7684 3816,7684 Z"/>
         <path fill="rgb(232,154,208)" fill-opacity="0.859" stroke="none" d="M 1988,7738 C 1874,7847 1768,7966 1670,8095 1552,8156 1438,8223 1326,8294 1285,8229 1267,8158 1273,8082 1344,8046 1414,8011 1485,7976 1649,7889 1817,7810 1988,7738 L 1988,7738 1988,7738 Z"/>
         <path fill="rgb(231,142,204)" fill-opacity="0.78" stroke="none" d="M 4427,8082 C 4389,8176 4336,8260 4267,8334 4207,8360 4145,8373 4082,8373 4179,8258 4295,8161 4427,8082 L 4427,8082 4427,8082 Z"/>
        </g>
        <g clip-path="url(#clip_path_1)"/>
       </g>
      </g>
     </g>
    </g>
   </g>
  </g>
 </g>
</svg>