<?xml version="1.0" encoding="UTF-8"?>
<!DOCTYPE svg PUBLIC "-//W3C//DTD SVG 1.1//EN" "http://www.w3.org/Graphics/SVG/1.1/DTD/svg11.dtd">
<svg xmlns="http://www.w3.org/2000/svg" version="1.1" width="307px" height="318px"   style="shape-rendering:geometricPrecision; text-rendering:geometricPrecision; image-rendering:optimizeQuality; fill-rule:evenodd; clip-rule:evenodd" xmlns:xlink="http://www.w3.org/1999/xlink">
<g><path style="opacity:0.975" fill="#5aa6d0" d="M 182.5,5.5 C 181.326,14.8956 179.993,24.229 178.5,33.5C 169.702,41.7977 161.035,50.2977 152.5,59C 148.167,61.3333 143.833,63.6667 139.5,66C 138.748,66.6708 138.414,67.5041 138.5,68.5C 135.251,66.9723 131.918,65.6389 128.5,64.5C 128.511,62.9826 129.177,61.8159 130.5,61C 127.965,60.3826 125.632,60.8826 123.5,62.5C 120.833,60.8333 118.167,59.1667 115.5,57.5C 119.181,55.2062 123.181,53.3729 127.5,52C 124.091,49.9271 121.091,50.2605 118.5,53C 116.19,53.4966 113.857,53.6633 111.5,53.5C 112.114,49.8648 112.448,46.1981 112.5,42.5C 113.822,42.33 114.989,42.6634 116,43.5C 115.778,41.5436 114.945,39.7103 113.5,38C 121.106,38.8672 126.106,35.7005 128.5,28.5C 133.264,28.2451 136.93,26.0785 139.5,22C 141.108,21.342 142.275,21.842 143,23.5C 141.766,19.8578 142.599,16.6911 145.5,14C 153.11,11.1968 160.11,7.36351 166.5,2.5C 167.086,2.70931 167.586,3.04265 168,3.5C 169.412,8.53176 168.412,12.8651 165,16.5C 164.517,17.448 164.351,18.448 164.5,19.5C 165.873,19.6567 167.207,19.49 168.5,19C 170.994,12.3408 175.661,7.84083 182.5,5.5 Z"/></g>
<g><path style="opacity:0.981" fill="#75b7d5" d="M 187.5,-0.5 C 188.833,-0.5 190.167,-0.5 191.5,-0.5C 191.116,2.76926 189.782,5.60259 187.5,8C 189.582,7.39308 191.749,6.55975 194,5.5C 194.5,5.83333 195,6.16667 195.5,6.5C 196.668,9.83911 197.834,13.1724 199,16.5C 200.996,8.42151 205.496,6.42151 212.5,10.5C 213.973,12.3947 215.64,14.0613 217.5,15.5C 205.435,29.0667 192.268,41.4 178,52.5C 177.517,51.552 177.351,50.552 177.5,49.5C 177.833,44.1667 178.167,38.8333 178.5,33.5C 179.993,24.229 181.326,14.8956 182.5,5.5C 184.89,4.10916 186.557,2.10916 187.5,-0.5 Z"/></g>
<g><path style="opacity:0.999" fill="#75b2d4" d="M 217.5,15.5 C 222.518,18.8592 227.518,22.1925 232.5,25.5C 234.167,27.5 235.833,29.5 237.5,31.5C 216.779,46.2168 195.779,60.5502 174.5,74.5C 175.182,65.9888 176.182,57.6555 177.5,49.5C 177.351,50.552 177.517,51.552 178,52.5C 192.268,41.4 205.435,29.0667 217.5,15.5 Z"/></g>
<g><path style="opacity:0.764" fill="#539bcc" d="M 212.5,10.5 C 221.042,13.0938 227.709,18.0938 232.5,25.5C 227.518,22.1925 222.518,18.8592 217.5,15.5C 215.64,14.0613 213.973,12.3947 212.5,10.5 Z"/></g>
<g><path style="opacity:0.999" fill="#75afd3" d="M 237.5,31.5 C 239.149,32.6485 240.649,33.9818 242,35.5C 242.902,35.2568 243.735,34.9234 244.5,34.5C 244.5,34.8333 244.5,35.1667 244.5,35.5C 239.43,42.0763 233.763,48.243 227.5,54C 213.1,64.1886 198.767,74.3553 184.5,84.5C 180.5,84.5 176.5,84.5 172.5,84.5C 171.833,84.5 171.5,84.1667 171.5,83.5C 172.117,83.3893 172.617,83.056 173,82.5C 173.183,79.6353 173.683,76.9686 174.5,74.5C 195.779,60.5502 216.779,46.2168 237.5,31.5 Z"/></g>
<g><path style="opacity:1" fill="#60a5d1" d="M 178.5,33.5 C 178.167,38.8333 177.833,44.1667 177.5,49.5C 176.182,57.6555 175.182,65.9888 174.5,74.5C 173.683,76.9686 173.183,79.6353 173,82.5C 172.617,83.056 172.117,83.3893 171.5,83.5C 165.201,80.8419 158.867,78.1752 152.5,75.5C 147.864,73.1822 143.198,70.8489 138.5,68.5C 138.414,67.5041 138.748,66.6708 139.5,66C 143.833,63.6667 148.167,61.3333 152.5,59C 161.035,50.2977 169.702,41.7977 178.5,33.5 Z"/></g>
<g><path style="opacity:0.913" fill="#599acd" d="M 244.5,35.5 C 244.5,35.1667 244.5,34.8333 244.5,34.5C 251.656,34.286 258.656,35.1194 265.5,37C 266.045,41.2516 265.378,45.4183 263.5,49.5C 258.149,45.8079 252.815,42.1412 247.5,38.5C 246.833,37.1667 245.833,36.1667 244.5,35.5 Z"/></g>
<g><path style="opacity:1" fill="#75add3" d="M 244.5,35.5 C 245.833,36.1667 246.833,37.1667 247.5,38.5C 237.421,47.0753 227.754,56.242 218.5,66C 225.663,62.2529 232.663,58.2529 239.5,54C 229.298,64.0349 219.298,74.2016 209.5,84.5C 201.167,84.5 192.833,84.5 184.5,84.5C 198.767,74.3553 213.1,64.1886 227.5,54C 233.763,48.243 239.43,42.0763 244.5,35.5 Z"/></g>
<g><path style="opacity:0.987" fill="#77abd3" d="M 247.5,38.5 C 252.815,42.1412 258.149,45.8079 263.5,49.5C 261.17,51.6168 259.17,54.1168 257.5,57C 247.982,58.2046 247.149,61.3713 255,66.5C 255.41,67.9007 255.91,69.234 256.5,70.5C 249.718,74.7322 243.051,79.2322 236.5,84C 242.348,84.1728 248.015,84.6728 253.5,85.5C 247.833,85.5 242.167,85.5 236.5,85.5C 227.506,85.0338 218.506,84.7004 209.5,84.5C 219.298,74.2016 229.298,64.0349 239.5,54C 232.663,58.2529 225.663,62.2529 218.5,66C 227.754,56.242 237.421,47.0753 247.5,38.5 Z"/></g>
<g><path style="opacity:0.98" fill="#82c9d9" d="M 121.5,68.5 C 110.035,79.4646 98.7016,90.6313 87.5,102C 86.9056,102.464 86.2389,102.631 85.5,102.5C 83.3971,99.2802 81.0638,96.2802 78.5,93.5C 75.0846,89.4242 72.0846,85.0908 69.5,80.5C 75.615,78.9482 81.9484,77.7816 88.5,77C 91.8333,74 95.1667,71 98.5,68C 100.459,67.0691 102.459,66.2357 104.5,65.5C 106.804,67.4311 108.638,69.7644 110,72.5C 110.285,61.9618 114.118,60.6285 121.5,68.5 Z"/></g>
<g><path style="opacity:0.994" fill="#81c4d8" d="M 128.5,64.5 C 131.918,65.6389 135.251,66.9723 138.5,68.5C 143.198,70.8489 147.864,73.1822 152.5,75.5C 134.833,90.1667 117.167,104.833 99.5,119.5C 96.8333,116.5 94.1667,113.5 91.5,110.5C 89.5,107.833 87.5,105.167 85.5,102.5C 86.2389,102.631 86.9056,102.464 87.5,102C 98.7016,90.6313 110.035,79.4646 121.5,68.5C 122.451,69.9187 122.784,71.5853 122.5,73.5C 124.527,73.6621 126.527,73.4955 128.5,73C 126.456,69.9335 126.456,67.1002 128.5,64.5 Z"/></g>
<g><path style="opacity:0.959" fill="#78a6d3" d="M 256.5,70.5 C 257.362,73.5356 259.196,75.869 262,77.5C 262.333,77.1667 262.667,76.8333 263,76.5C 263.696,79.4781 264.196,82.4781 264.5,85.5C 260.833,85.5 257.167,85.5 253.5,85.5C 248.015,84.6728 242.348,84.1728 236.5,84C 243.051,79.2322 249.718,74.7322 256.5,70.5 Z"/></g>
<g><path style="opacity:0.972" fill="#73b1cb" d="M 66.5,80.5 C 66.631,81.2389 66.4643,81.9056 66,82.5C 48.2717,100.396 30.4383,118.062 12.5,135.5C 8.62859,135.815 4.96192,135.482 1.5,134.5C 2.39092,133.739 3.05758,132.739 3.5,131.5C 2.49953,129.187 1.16619,127.187 -0.5,125.5C -0.5,123.833 -0.5,122.167 -0.5,120.5C 4.01586,119.482 6.68253,116.649 7.5,112C 9.48838,111.82 11.4884,111.986 13.5,112.5C 13.7066,109.255 12.2066,107.255 9,106.5C 8.27969,104.888 8.44636,103.388 9.5,102C 12.3876,100.408 15.221,98.9078 18,97.5C 20.5095,98.0925 23.0095,98.2592 25.5,98C 28.3116,96.0227 30.9783,93.856 33.5,91.5C 35.6179,92.9459 37.9512,93.6126 40.5,93.5C 40.7163,91.3193 39.883,89.6526 38,88.5C 37.3333,86.8333 37.3333,85.1667 38,83.5C 43.0853,82.039 47.2519,79.2057 50.5,75C 52.1667,74.3333 53.8333,74.3333 55.5,75C 58.6422,77.9044 62.3089,79.7378 66.5,80.5 Z"/></g>
<g><path style="opacity:1" fill="#80bed7" d="M 152.5,75.5 C 158.867,78.1752 165.201,80.8419 171.5,83.5C 171.5,84.1667 171.833,84.5 172.5,84.5C 172.5,84.8333 172.5,85.1667 172.5,85.5C 152.839,103.161 133.506,121.161 114.5,139.5C 114.167,139.5 113.833,139.5 113.5,139.5C 108.419,133.092 103.752,126.425 99.5,119.5C 117.167,104.833 134.833,90.1667 152.5,75.5 Z"/></g>
<g><path style="opacity:1" fill="#99ccdc" d="M 172.5,85.5 C 172.5,85.1667 172.5,84.8333 172.5,84.5C 176.5,84.5 180.5,84.5 184.5,84.5C 192.833,84.5 201.167,84.5 209.5,84.5C 218.506,84.7004 227.506,85.0338 236.5,85.5C 229.369,93.1316 222.036,100.632 214.5,108C 211.924,109.456 209.258,110.623 206.5,111.5C 204.246,110.585 202.246,109.252 200.5,107.5C 191.723,99.9379 182.723,92.6046 173.5,85.5C 173.167,85.5 172.833,85.5 172.5,85.5 Z"/></g>
<g><path style="opacity:0.999" fill="#9fcbdd" d="M 236.5,85.5 C 242.167,85.5 247.833,85.5 253.5,85.5C 257.167,85.5 260.833,85.5 264.5,85.5C 265.11,86.391 265.443,87.391 265.5,88.5C 261.644,90.4077 257.644,92.2411 253.5,94C 243.247,104.757 232.58,114.924 221.5,124.5C 220.833,124.167 220.167,123.833 219.5,123.5C 216.81,120.815 213.81,118.482 210.5,116.5C 209.167,114.833 207.833,113.167 206.5,111.5C 209.258,110.623 211.924,109.456 214.5,108C 222.036,100.632 229.369,93.1316 236.5,85.5 Z"/></g>
<g><path style="opacity:1" fill="#79b5ce" d="M 66.5,80.5 C 67.5,80.5 68.5,80.5 69.5,80.5C 72.0846,85.0908 75.0846,89.4242 78.5,93.5C 64.473,108.194 50.1396,122.527 35.5,136.5C 27.8127,136.54 20.1461,136.207 12.5,135.5C 30.4383,118.062 48.2717,100.396 66,82.5C 66.4643,81.9056 66.631,81.2389 66.5,80.5 Z"/></g>
<g><path style="opacity:0.991" fill="#a5c9dd" d="M 265.5,88.5 C 267.802,90.6562 270.469,92.3228 273.5,93.5C 274.69,96.6308 275.69,99.7975 276.5,103C 277.167,103.667 277.833,103.667 278.5,103C 281.016,100.317 283.683,97.8167 286.5,95.5C 287.763,97.0287 288.763,98.6954 289.5,100.5C 272.167,112.833 254.833,125.167 237.5,137.5C 236.167,136.833 234.833,136.167 233.5,135.5C 231.766,132.8 229.432,130.8 226.5,129.5C 225.027,127.605 223.36,125.939 221.5,124.5C 232.58,114.924 243.247,104.757 253.5,94C 257.644,92.2411 261.644,90.4077 265.5,88.5 Z"/></g>
<g><path style="opacity:1" fill="#bbdbe1" d="M 172.5,85.5 C 172.833,85.5 173.167,85.5 173.5,85.5C 174.727,91.8621 176.06,98.1954 177.5,104.5C 164.019,120.796 151.019,137.462 138.5,154.5C 130.5,149.5 122.5,144.5 114.5,139.5C 133.506,121.161 152.839,103.161 172.5,85.5 Z"/></g>
<g><path style="opacity:1" fill="#aad5df" d="M 173.5,85.5 C 182.723,92.6046 191.723,99.9379 200.5,107.5C 196.512,115.782 190.845,122.782 183.5,128.5C 181.377,120.556 179.377,112.556 177.5,104.5C 176.06,98.1954 174.727,91.8621 173.5,85.5 Z"/></g>
<g><path style="opacity:0.966" fill="#b9cadb" d="M 289.5,100.5 C 292.601,102.645 293.101,105.312 291,108.5C 287.084,111.928 282.584,114.428 277.5,116C 275.701,119.076 274.534,122.243 274,125.5C 274.414,125.957 274.914,126.291 275.5,126.5C 276.862,124.988 277.196,123.488 276.5,122C 278.535,121.401 280.201,121.901 281.5,123.5C 273.16,130.99 264.493,137.99 255.5,144.5C 254.833,144.167 254.167,143.833 253.5,143.5C 248.177,141.841 242.844,140.174 237.5,138.5C 237.5,138.167 237.5,137.833 237.5,137.5C 254.833,125.167 272.167,112.833 289.5,100.5 Z"/></g>
<g><path style="opacity:1" fill="#80bbd1" d="M 78.5,93.5 C 81.0638,96.2802 83.3971,99.2802 85.5,102.5C 87.5,105.167 89.5,107.833 91.5,110.5C 82.8333,119.5 74.1667,128.5 65.5,137.5C 62.5,137.5 59.5,137.5 56.5,137.5C 50.8791,136.646 45.2124,136.313 39.5,136.5C 38.1667,136.5 36.8333,136.5 35.5,136.5C 50.1396,122.527 64.473,108.194 78.5,93.5 Z"/></g>
<g><path style="opacity:1" fill="#bed9e0" d="M 177.5,104.5 C 179.377,112.556 181.377,120.556 183.5,128.5C 184.497,133.161 185.497,137.827 186.5,142.5C 187.388,147.395 188.888,152.062 191,156.5C 199.991,145.013 209.491,134.013 219.5,123.5C 220.167,123.833 220.833,124.167 221.5,124.5C 223.36,125.939 225.027,127.605 226.5,129.5C 222.474,134.044 218.974,139.044 216,144.5C 211.667,148.833 207.333,153.167 203,157.5C 200.973,162.215 197.973,166.215 194,169.5C 192.214,165.982 190.714,162.316 189.5,158.5C 186.849,160.65 184.349,162.983 182,165.5C 181.833,165.167 181.667,164.833 181.5,164.5C 184.753,161.307 186.919,157.64 188,153.5C 181.577,160.428 174.744,166.762 167.5,172.5C 158.167,166.833 148.833,161.167 139.5,155.5C 139.5,154.833 139.167,154.5 138.5,154.5C 151.019,137.462 164.019,120.796 177.5,104.5 Z"/></g>
<g><path style="opacity:1" fill="#b2d6df" d="M 200.5,107.5 C 202.246,109.252 204.246,110.585 206.5,111.5C 207.833,113.167 209.167,114.833 210.5,116.5C 206.614,120.581 203.448,125.248 201,130.5C 196.667,134.833 192.333,139.167 188,143.5C 187.617,142.944 187.117,142.611 186.5,142.5C 185.497,137.827 184.497,133.161 183.5,128.5C 190.845,122.782 196.512,115.782 200.5,107.5 Z"/></g>
<g><path style="opacity:1" fill="#b8d7df" d="M 210.5,116.5 C 213.81,118.482 216.81,120.815 219.5,123.5C 209.491,134.013 199.991,145.013 191,156.5C 188.888,152.062 187.388,147.395 186.5,142.5C 187.117,142.611 187.617,142.944 188,143.5C 192.333,139.167 196.667,134.833 201,130.5C 203.448,125.248 206.614,120.581 210.5,116.5 Z"/></g>
<g><path style="opacity:1" fill="#88c0d5" d="M 91.5,110.5 C 94.1667,113.5 96.8333,116.5 99.5,119.5C 103.752,126.425 108.419,133.092 113.5,139.5C 112.833,139.5 112.167,139.5 111.5,139.5C 101.866,138.608 92.1991,138.275 82.5,138.5C 76.828,138.24 71.1613,137.907 65.5,137.5C 74.1667,128.5 82.8333,119.5 91.5,110.5 Z"/></g>
<g><path style="opacity:0.963" fill="#bbc4d9" d="M 281.5,123.5 C 286.732,126.053 290.065,130.053 291.5,135.5C 283.945,139.451 277.945,144.451 273.5,150.5C 267.426,148.698 261.426,146.698 255.5,144.5C 264.493,137.99 273.16,130.99 281.5,123.5 Z"/></g>
<g><path style="opacity:1" fill="#c4d7df" d="M 226.5,129.5 C 229.432,130.8 231.766,132.8 233.5,135.5C 232.504,135.414 231.671,135.748 231,136.5C 223.853,150.448 214.52,162.781 203,173.5C 201.248,176.672 199.248,179.672 197,182.5C 196.991,185.369 196.824,188.036 196.5,190.5C 192.5,188.167 188.5,185.833 184.5,183.5C 178.663,180.082 172.996,176.416 167.5,172.5C 174.744,166.762 181.577,160.428 188,153.5C 186.919,157.64 184.753,161.307 181.5,164.5C 181.667,164.833 181.833,165.167 182,165.5C 184.349,162.983 186.849,160.65 189.5,158.5C 190.714,162.316 192.214,165.982 194,169.5C 197.973,166.215 200.973,162.215 203,157.5C 207.333,153.167 211.667,148.833 216,144.5C 218.974,139.044 222.474,134.044 226.5,129.5 Z"/></g>
<g><path style="opacity:1" fill="#c9d8e0" d="M 233.5,135.5 C 234.833,136.167 236.167,136.833 237.5,137.5C 237.5,137.833 237.5,138.167 237.5,138.5C 234.815,141.19 232.482,144.19 230.5,147.5C 219.984,162.533 208.984,177.2 197.5,191.5C 196.893,191.376 196.56,191.043 196.5,190.5C 196.824,188.036 196.991,185.369 197,182.5C 199.248,179.672 201.248,176.672 203,173.5C 214.52,162.781 223.853,150.448 231,136.5C 231.671,135.748 232.504,135.414 233.5,135.5 Z"/></g>
<g><path style="opacity:0.916" fill="#bdbfd7" d="M 291.5,135.5 C 292.625,137.377 292.291,139.21 290.5,141C 293.402,142.94 294.402,145.44 293.5,148.5C 292.167,147.833 290.833,147.167 289.5,146.5C 289.167,147 288.833,147.5 288.5,148C 289.897,149.961 290.897,152.128 291.5,154.5C 291.457,155.416 291.124,156.083 290.5,156.5C 287.833,155.5 285.167,154.5 282.5,153.5C 279.421,152.696 276.421,151.696 273.5,150.5C 277.945,144.451 283.945,139.451 291.5,135.5 Z"/></g>
<g><path style="opacity:0.919" fill="#7eaac2" d="M 1.5,134.5 C 4.96192,135.482 8.62859,135.815 12.5,135.5C 20.1461,136.207 27.8127,136.54 35.5,136.5C 36.8333,136.5 38.1667,136.5 39.5,136.5C 31.7717,139.043 24.105,141.377 16.5,143.5C 14.9557,143.297 13.6223,142.63 12.5,141.5C 11.1502,142.95 9.4835,143.617 7.5,143.5C 7.65668,142.127 7.49001,140.793 7,139.5C 5.14142,142.746 3.47475,146.079 2,149.5C 1.45397,146.621 0.620635,143.954 -0.5,141.5C -0.5,139.833 -0.5,138.167 -0.5,136.5C 0.166667,135.833 0.833333,135.167 1.5,134.5 Z"/></g>
<g><path style="opacity:0.98" fill="#85b1c6" d="M 39.5,136.5 C 45.2124,136.313 50.8791,136.646 56.5,137.5C 43.7164,141.87 30.7164,145.87 17.5,149.5C 17.7947,147.265 17.4614,145.265 16.5,143.5C 24.105,141.377 31.7717,139.043 39.5,136.5 Z"/></g>
<g><path style="opacity:0.993" fill="#8db8c9" d="M 56.5,137.5 C 59.5,137.5 62.5,137.5 65.5,137.5C 71.1613,137.907 76.828,138.24 82.5,138.5C 76.0477,140.955 69.381,143.121 62.5,145C 48.1305,148.455 33.7971,151.955 19.5,155.5C 18.7148,153.626 18.0482,151.626 17.5,149.5C 30.7164,145.87 43.7164,141.87 56.5,137.5 Z"/></g>
<g><path style="opacity:1" fill="#97bfcd" d="M 82.5,138.5 C 92.1991,138.275 101.866,138.608 111.5,139.5C 100.323,143.672 88.9896,147.672 77.5,151.5C 77.5743,149.589 78.5743,148.422 80.5,148C 63.7138,149.484 47.2138,153.317 31,159.5C 30.586,159.043 30.086,158.709 29.5,158.5C 26.2455,159.813 22.9122,160.813 19.5,161.5C 19.9349,159.703 19.9349,157.703 19.5,155.5C 33.7971,151.955 48.1305,148.455 62.5,145C 69.381,143.121 76.0477,140.955 82.5,138.5 Z"/></g>
<g><path style="opacity:1" fill="#d8d7e0" d="M 237.5,138.5 C 236.813,145.813 236.479,153.146 236.5,160.5C 236.211,170.169 235.878,179.835 235.5,189.5C 235.054,199.519 234.388,209.519 233.5,219.5C 233.167,226.167 232.833,232.833 232.5,239.5C 232.5,243.167 232.5,246.833 232.5,250.5C 230.567,249.358 229.067,247.692 228,245.5C 222.075,233.98 215.908,222.646 209.5,211.5C 216.956,190.745 224.289,169.912 231.5,149C 231.43,148.235 231.097,147.735 230.5,147.5C 232.482,144.19 234.815,141.19 237.5,138.5 Z"/></g>
<g><path style="opacity:1" fill="#ded5de" d="M 237.5,138.5 C 242.844,140.174 248.177,141.841 253.5,143.5C 253.631,144.239 253.464,144.906 253,145.5C 247.246,150.43 241.746,155.43 236.5,160.5C 236.479,153.146 236.813,145.813 237.5,138.5 Z"/></g>
<g><path style="opacity:0.991" fill="#99a7c4" d="M 111.5,139.5 C 112.167,139.5 112.833,139.5 113.5,139.5C 113.833,139.5 114.167,139.5 114.5,139.5C 114.5,140.833 114.5,142.167 114.5,143.5C 96.8483,157.821 79.5149,172.487 62.5,187.5C 61.8333,187.5 61.5,187.833 61.5,188.5C 61.1667,188.5 60.8333,188.5 60.5,188.5C 57.4783,188.572 55.3116,187.238 54,184.5C 52.3721,185.819 52.5387,187.152 54.5,188.5C 51.2786,189.924 47.9453,190.924 44.5,191.5C 42.5,190.167 40.5,188.833 38.5,187.5C 38.369,186.761 38.5357,186.094 39,185.5C 49.3688,175.298 59.5355,164.965 69.5,154.5C 71.936,153.129 74.6027,152.129 77.5,151.5C 88.9896,147.672 100.323,143.672 111.5,139.5 Z"/></g>
<g><path style="opacity:0.994" fill="#9fa6c4" d="M 114.5,143.5 C 117.407,149.098 119.407,155.098 120.5,161.5C 105.035,176.465 89.7015,191.632 74.5,207C 73.9056,207.464 73.2389,207.631 72.5,207.5C 66.7941,204.653 61.4607,201.32 56.5,197.5C 58.0103,196.164 59.6769,194.997 61.5,194C 57.9324,192.709 57.599,190.876 60.5,188.5C 60.8333,188.5 61.1667,188.5 61.5,188.5C 62.1667,188.5 62.5,188.167 62.5,187.5C 79.5149,172.487 96.8483,157.821 114.5,143.5 Z"/></g>
<g><path style="opacity:1" fill="#dbd0dd" d="M 253.5,143.5 C 254.167,143.833 254.833,144.167 255.5,144.5C 261.426,146.698 267.426,148.698 273.5,150.5C 276.421,151.696 279.421,152.696 282.5,153.5C 266.857,165.469 251.191,177.469 235.5,189.5C 235.878,179.835 236.211,170.169 236.5,160.5C 241.746,155.43 247.246,150.43 253,145.5C 253.464,144.906 253.631,144.239 253.5,143.5 Z"/></g>
<g><path style="opacity:1" fill="#d0dae0" d="M 114.5,139.5 C 122.5,144.5 130.5,149.5 138.5,154.5C 139.167,154.5 139.5,154.833 139.5,155.5C 135.233,161.436 130.233,166.77 124.5,171.5C 123.365,168.098 122.032,164.765 120.5,161.5C 119.407,155.098 117.407,149.098 114.5,143.5C 114.5,142.167 114.5,140.833 114.5,139.5 Z"/></g>
<g><path style="opacity:0.976" fill="#99c4cf" d="M 77.5,151.5 C 74.6027,152.129 71.936,153.129 69.5,154.5C 58.6212,157.792 47.9545,161.459 37.5,165.5C 32.6441,162.231 28.9774,163.231 26.5,168.5C 24.7162,168.893 23.0495,169.559 21.5,170.5C 18.7625,167.803 18.0958,164.803 19.5,161.5C 22.9122,160.813 26.2455,159.813 29.5,158.5C 30.086,158.709 30.586,159.043 31,159.5C 47.2138,153.317 63.7138,149.484 80.5,148C 78.5743,148.422 77.5743,149.589 77.5,151.5 Z"/></g>
<g><path style="opacity:1" fill="#dbd8df" d="M 230.5,147.5 C 231.097,147.735 231.43,148.235 231.5,149C 224.289,169.912 216.956,190.745 209.5,211.5C 205.692,205.23 201.859,198.897 198,192.5C 181.57,212.423 165.736,232.756 150.5,253.5C 149.833,253.5 149.5,253.167 149.5,252.5C 147.425,246.609 145.758,240.609 144.5,234.5C 156.315,218.225 168.148,201.892 180,185.5C 181.11,183.963 182.61,183.297 184.5,183.5C 188.5,185.833 192.5,188.167 196.5,190.5C 196.56,191.043 196.893,191.376 197.5,191.5C 208.984,177.2 219.984,162.533 230.5,147.5 Z"/></g>
<g><path style="opacity:1" fill="#95a8c3" d="M 69.5,154.5 C 59.5355,164.965 49.3688,175.298 39,185.5C 38.5357,186.094 38.369,186.761 38.5,187.5C 35.8068,186.153 33.1401,184.82 30.5,183.5C 30.6201,177.861 33.1201,173.528 38,170.5C 38.6397,168.735 38.4731,167.068 37.5,165.5C 47.9545,161.459 58.6212,157.792 69.5,154.5 Z"/></g>
<g><path style="opacity:0.977" fill="#d8cbdb" d="M 282.5,153.5 C 285.167,154.5 287.833,155.5 290.5,156.5C 287.877,160.902 284.877,165.069 281.5,169C 280.004,169.507 278.837,169.007 278,167.5C 277.727,169.101 277.227,170.601 276.5,172C 273.285,172.274 270.619,173.607 268.5,176C 270.423,178.515 272.09,181.182 273.5,184C 272.048,185.565 270.381,186.898 268.5,188C 269.252,188.671 269.586,189.504 269.5,190.5C 259.063,197.757 248.73,205.257 238.5,213C 235.963,214.609 234.296,216.775 233.5,219.5C 234.388,209.519 235.054,199.519 235.5,189.5C 251.191,177.469 266.857,165.469 282.5,153.5 Z"/></g>
<g><path style="opacity:1" fill="#a5a5c5" d="M 120.5,161.5 C 122.032,164.765 123.365,168.098 124.5,171.5C 124.584,174.327 125.25,176.994 126.5,179.5C 125.883,179.389 125.383,179.056 125,178.5C 112.581,191.422 99.7473,203.756 86.5,215.5C 82.5,213.5 78.5,211.5 74.5,209.5C 73.8333,208.833 73.1667,208.167 72.5,207.5C 73.2389,207.631 73.9056,207.464 74.5,207C 89.7015,191.632 105.035,176.465 120.5,161.5 Z"/></g>
<g><path style="opacity:1" fill="#d9d9e0" d="M 139.5,155.5 C 148.833,161.167 158.167,166.833 167.5,172.5C 172.996,176.416 178.663,180.082 184.5,183.5C 182.61,183.297 181.11,183.963 180,185.5C 168.148,201.892 156.315,218.225 144.5,234.5C 143.323,232.321 142.323,229.987 141.5,227.5C 140.565,223.03 139.232,218.697 137.5,214.5C 135.652,208.103 133.652,201.77 131.5,195.5C 130.232,190.029 128.565,184.696 126.5,179.5C 125.25,176.994 124.584,174.327 124.5,171.5C 130.233,166.77 135.233,161.436 139.5,155.5 Z"/></g>
<g><path style="opacity:0.693" fill="#92abc3" d="M 26.5,168.5 C 26.5,169.833 26.5,171.167 26.5,172.5C 24.4471,172.598 22.7804,171.931 21.5,170.5C 23.0495,169.559 24.7162,168.893 26.5,168.5 Z"/></g>
<g><path style="opacity:1" fill="#aba5c6" d="M 126.5,179.5 C 128.565,184.696 130.232,190.029 131.5,195.5C 120.886,204.446 110.886,214.112 101.5,224.5C 99.8333,223.833 98.1667,223.167 96.5,222.5C 93.1667,220.167 89.8333,217.833 86.5,215.5C 99.7473,203.756 112.581,191.422 125,178.5C 125.383,179.056 125.883,179.389 126.5,179.5 Z"/></g>
<g><path style="opacity:0.954" fill="#d4d0da" d="M 30.5,183.5 C 33.1401,184.82 35.8068,186.153 38.5,187.5C 40.5,188.833 42.5,190.167 44.5,191.5C 44.749,196.264 42.5823,199.264 38,200.5C 37.6966,202.888 36.8633,205.055 35.5,207C 32.9471,207.761 30.4471,208.594 28,209.5C 27.5706,207.331 28.0706,205.331 29.5,203.5C 28.0606,201.447 26.0606,200.447 23.5,200.5C 23.3433,199.127 23.51,197.793 24,196.5C 26.728,192.377 28.8947,188.044 30.5,183.5 Z"/></g>
<g><path style="opacity:1" fill="#e4d0de" d="M 209.5,211.5 C 215.908,222.646 222.075,233.98 228,245.5C 229.067,247.692 230.567,249.358 232.5,250.5C 232.5,250.833 232.5,251.167 232.5,251.5C 231.833,251.5 231.167,251.5 230.5,251.5C 227.167,251.5 223.833,251.5 220.5,251.5C 209.167,251.833 197.833,252.167 186.5,252.5C 174.498,252.763 162.498,253.097 150.5,253.5C 165.736,232.756 181.57,212.423 198,192.5C 201.859,198.897 205.692,205.23 209.5,211.5 Z"/></g>
<g><path style="opacity:0.977" fill="#d5c7da" d="M 269.5,190.5 C 269.982,191.416 270.315,192.416 270.5,193.5C 269.242,196.6 267.742,199.6 266,202.5C 265.235,204.066 265.402,205.399 266.5,206.5C 256.018,214.803 245.352,222.97 234.5,231C 233.872,233.939 233.205,236.772 232.5,239.5C 232.833,232.833 233.167,226.167 233.5,219.5C 234.296,216.775 235.963,214.609 238.5,213C 248.73,205.257 259.063,197.757 269.5,190.5 Z"/></g>
<g><path style="opacity:1" fill="#b2a4c6" d="M 131.5,195.5 C 133.652,201.77 135.652,208.103 137.5,214.5C 130.221,220.442 123.221,226.775 116.5,233.5C 112.172,231.671 108.172,229.338 104.5,226.5C 103.29,226.068 102.29,225.401 101.5,224.5C 110.886,214.112 120.886,204.446 131.5,195.5 Z"/></g>
<g><path style="opacity:0.953" fill="#ddcad9" d="M 56.5,197.5 C 61.4607,201.32 66.7941,204.653 72.5,207.5C 73.1667,208.167 73.8333,208.833 74.5,209.5C 69.204,216.131 63.5374,222.465 57.5,228.5C 53.8365,230.202 51.0031,229.202 49,225.5C 48.6667,223.167 48.3333,220.833 48,218.5C 45.9592,217.577 43.7925,217.244 41.5,217.5C 41.5,216.167 41.5,214.833 41.5,213.5C 46.5397,212.989 51.5397,212.156 56.5,211C 55.1058,208.151 54.1058,205.151 53.5,202C 53.5221,199.817 54.5221,198.317 56.5,197.5 Z"/></g>
<g><path style="opacity:0.988" fill="#d3c4d9" d="M 289.5,207.5 C 280.264,215.464 270.597,222.964 260.5,230C 255.963,234.369 251.63,238.869 247.5,243.5C 242.961,246.6 237.961,248.933 232.5,250.5C 232.5,246.833 232.5,243.167 232.5,239.5C 233.205,236.772 233.872,233.939 234.5,231C 245.352,222.97 256.018,214.803 266.5,206.5C 267.695,206.678 268.862,207.011 270,207.5C 275.376,205.59 280.876,204.757 286.5,205C 287.942,205.377 288.942,206.21 289.5,207.5 Z"/></g>
<g><path style="opacity:0.981" fill="#d1c0d7" d="M 289.5,207.5 C 292.88,207.788 295.547,209.288 297.5,212C 295.954,215.351 294.954,218.851 294.5,222.5C 279.245,230.291 263.579,237.291 247.5,243.5C 251.63,238.869 255.963,234.369 260.5,230C 270.597,222.964 280.264,215.464 289.5,207.5 Z"/></g>
<g><path style="opacity:0.942" fill="#dfc4d8" d="M 74.5,209.5 C 78.5,211.5 82.5,213.5 86.5,215.5C 89.8333,217.833 93.1667,220.167 96.5,222.5C 91.8333,227.833 86.8333,232.833 81.5,237.5C 80.5416,237.047 79.7083,236.381 79,235.5C 77.2188,238.333 75.7188,241.333 74.5,244.5C 66.8362,249.332 58.5029,251.499 49.5,251C 50.1492,247.805 50.9825,244.639 52,241.5C 53.6676,244.21 54.501,244.043 54.5,241C 54.0566,239.175 53.7233,237.342 53.5,235.5C 56.1194,235.232 58.6194,235.565 61,236.5C 63.2902,233.42 65.4569,230.253 67.5,227C 64.2088,227.288 60.8754,227.788 57.5,228.5C 63.5374,222.465 69.204,216.131 74.5,209.5 Z"/></g>
<g><path style="opacity:1" fill="#b8a4c7" d="M 137.5,214.5 C 139.232,218.697 140.565,223.03 141.5,227.5C 140.078,227.709 138.745,228.209 137.5,229C 133.964,232.704 130.298,236.204 126.5,239.5C 123.807,238.153 121.14,236.82 118.5,235.5C 117.833,234.833 117.167,234.167 116.5,233.5C 123.221,226.775 130.221,220.442 137.5,214.5 Z"/></g>
<g><path style="opacity:0.962" fill="#dfc0d7" d="M 96.5,222.5 C 98.1667,223.167 99.8333,223.833 101.5,224.5C 102.29,225.401 103.29,226.068 104.5,226.5C 104.631,227.239 104.464,227.906 104,228.5C 84.5572,248.11 65.0572,267.444 45.5,286.5C 45.3343,282.154 45.501,277.821 46,273.5C 49.0567,272.549 52.2234,272.216 55.5,272.5C 54.9233,269.355 52.9233,267.855 49.5,268C 53.8333,263.667 58.1667,259.333 62.5,255C 68.1667,251.5 73.8333,248 79.5,244.5C 80.9438,242.392 81.6104,240.059 81.5,237.5C 86.8333,232.833 91.8333,227.833 96.5,222.5 Z"/></g>
<g><path style="opacity:0.989" fill="#dbb3d5" d="M 294.5,222.5 C 296.67,224.086 299.004,225.42 301.5,226.5C 285.006,235.246 268.673,244.246 252.5,253.5C 245.851,252.669 239.185,252.002 232.5,251.5C 232.5,251.167 232.5,250.833 232.5,250.5C 237.961,248.933 242.961,246.6 247.5,243.5C 263.579,237.291 279.245,230.291 294.5,222.5 Z"/></g>
<g><path style="opacity:0.995" fill="#e0bdd7" d="M 104.5,226.5 C 108.172,229.338 112.172,231.671 116.5,233.5C 117.167,234.167 117.833,234.833 118.5,235.5C 97.8955,256.605 77.0621,277.605 56,298.5C 55.5357,299.094 55.369,299.761 55.5,300.5C 52.8333,301.833 50.1667,303.167 47.5,304.5C 46.9646,298.479 46.298,292.479 45.5,286.5C 65.0572,267.444 84.5572,248.11 104,228.5C 104.464,227.906 104.631,227.239 104.5,226.5 Z"/></g>
<g><path style="opacity:0.971" fill="#d9aed2" d="M 301.5,226.5 C 303.48,227.484 305.147,228.817 306.5,230.5C 306.5,232.833 306.5,235.167 306.5,237.5C 305.747,242.214 303.414,246.048 299.5,249C 300.409,250.789 300.576,252.623 300,254.5C 294.516,252.569 289.682,253.569 285.5,257.5C 281.143,257.414 276.81,257.08 272.5,256.5C 266.005,255.218 259.339,254.218 252.5,253.5C 268.673,244.246 285.006,235.246 301.5,226.5 Z"/></g>
<g><path style="opacity:0.989" fill="#e1b9d7" d="M 118.5,235.5 C 121.14,236.82 123.807,238.153 126.5,239.5C 130.63,242.403 134.963,245.07 139.5,247.5C 135.277,254.065 130.277,260.065 124.5,265.5C 116.005,269.913 107.672,274.58 99.5,279.5C 97.1432,279.337 94.8098,279.503 92.5,280C 88.469,282.455 84.1356,284.121 79.5,285C 77.4497,286.965 75.783,289.132 74.5,291.5C 68.0411,294.229 61.7077,297.229 55.5,300.5C 55.369,299.761 55.5357,299.094 56,298.5C 77.0621,277.605 97.8955,256.605 118.5,235.5 Z"/></g>
<g><path style="opacity:1" fill="#c0a4c8" d="M 141.5,227.5 C 142.323,229.987 143.323,232.321 144.5,234.5C 145.758,240.609 147.425,246.609 149.5,252.5C 145.883,251.358 142.55,249.692 139.5,247.5C 134.963,245.07 130.63,242.403 126.5,239.5C 130.298,236.204 133.964,232.704 137.5,229C 138.745,228.209 140.078,227.709 141.5,227.5 Z"/></g>
<g><path style="opacity:0.999" fill="#e2b3d6" d="M 139.5,247.5 C 142.55,249.692 145.883,251.358 149.5,252.5C 149.5,253.167 149.833,253.5 150.5,253.5C 150.5,254.167 150.167,254.5 149.5,254.5C 141.325,258.418 132.992,262.085 124.5,265.5C 130.277,260.065 135.277,254.065 139.5,247.5 Z"/></g>
<g><path style="opacity:0.991" fill="#ecb3d9" d="M 220.5,251.5 C 223.833,251.5 227.167,251.5 230.5,251.5C 226.167,255.5 221.833,259.5 217.5,263.5C 201.394,275.761 185.394,288.261 169.5,301C 168.177,301.816 167.511,302.983 167.5,304.5C 167.167,304.5 166.833,304.5 166.5,304.5C 161.53,307.475 157.196,311.142 153.5,315.5C 148.797,315.563 144.13,315.229 139.5,314.5C 139.205,312.265 139.539,310.265 140.5,308.5C 140.351,309.552 140.517,310.552 141,311.5C 165.591,292.12 190.091,272.62 214.5,253C 216.708,252.809 218.708,252.309 220.5,251.5 Z"/></g>
<g><path style="opacity:0.997" fill="#ecbddc" d="M 186.5,252.5 C 185.391,253.29 184.058,253.79 182.5,254C 170.797,267.218 157.797,278.718 143.5,288.5C 143.5,287.5 143.5,286.5 143.5,285.5C 146.044,275.4 148.044,265.067 149.5,254.5C 150.167,254.5 150.5,254.167 150.5,253.5C 162.498,253.097 174.498,252.763 186.5,252.5 Z"/></g>
<g><path style="opacity:1" fill="#ecb8db" d="M 220.5,251.5 C 218.708,252.309 216.708,252.809 214.5,253C 190.091,272.62 165.591,292.12 141,311.5C 140.517,310.552 140.351,309.552 140.5,308.5C 141.035,302.086 142.035,295.752 143.5,289.5C 143.5,289.167 143.5,288.833 143.5,288.5C 157.797,278.718 170.797,267.218 182.5,254C 184.058,253.79 185.391,253.29 186.5,252.5C 197.833,252.167 209.167,251.833 220.5,251.5 Z"/></g>
<g><path style="opacity:0.936" fill="#e899d1" d="M 149.5,254.5 C 148.044,265.067 146.044,275.4 143.5,285.5C 142.971,280.94 140.638,279.273 136.5,280.5C 134.941,279.926 133.441,279.26 132,278.5C 132.028,274.277 130.695,270.611 128,267.5C 122.912,270.583 118.412,274.417 114.5,279C 109.569,280.656 104.569,280.823 99.5,279.5C 107.672,274.58 116.005,269.913 124.5,265.5C 132.992,262.085 141.325,258.418 149.5,254.5 Z"/></g>
<g><path style="opacity:1" fill="#eab0da" d="M 232.5,252.5 C 232.5,252.167 232.5,251.833 232.5,251.5C 239.185,252.002 245.851,252.669 252.5,253.5C 259.339,254.218 266.005,255.218 272.5,256.5C 266.705,262.903 259.705,267.57 251.5,270.5C 250.833,270.167 250.167,269.833 249.5,269.5C 244.167,263.5 238.5,257.833 232.5,252.5 Z"/></g>
<g><path style="opacity:0.99" fill="#e686c5" d="M 230.5,251.5 C 231.167,251.5 231.833,251.5 232.5,251.5C 232.5,251.833 232.5,252.167 232.5,252.5C 233.343,257.536 234.343,262.536 235.5,267.5C 221.793,280.872 208.793,294.872 196.5,309.5C 194.918,308.124 193.085,307.124 191,306.5C 185.43,308.743 179.93,311.076 174.5,313.5C 188.811,296.853 203.144,280.186 217.5,263.5C 221.833,259.5 226.167,255.5 230.5,251.5 Z"/></g>
<g><path style="opacity:0.975" fill="#e9abd9" d="M 272.5,256.5 C 276.81,257.08 281.143,257.414 285.5,257.5C 281.466,263.555 277.8,269.888 274.5,276.5C 270.277,277.611 266.277,279.278 262.5,281.5C 261.5,280.833 260.5,280.167 259.5,279.5C 256.833,276.5 254.167,273.5 251.5,270.5C 259.705,267.57 266.705,262.903 272.5,256.5 Z"/></g>
<g><path style="opacity:1" fill="#e999d2" d="M 232.5,252.5 C 238.5,257.833 244.167,263.5 249.5,269.5C 247.14,271.713 245.306,274.379 244,277.5C 242.667,278.833 241.333,280.167 240,281.5C 239.617,280.944 239.117,280.611 238.5,280.5C 237.609,276.165 236.609,271.832 235.5,267.5C 234.343,262.536 233.343,257.536 232.5,252.5 Z"/></g>
<g><path style="opacity:0.992" fill="#e78bca" d="M 217.5,263.5 C 203.144,280.186 188.811,296.853 174.5,313.5C 172.565,314.15 170.565,314.483 168.5,314.5C 168.813,310.958 168.479,307.625 167.5,304.5C 167.511,302.983 168.177,301.816 169.5,301C 185.394,288.261 201.394,275.761 217.5,263.5 Z"/></g>
<g><path style="opacity:0.988" fill="#e581be" d="M 235.5,267.5 C 236.609,271.832 237.609,276.165 238.5,280.5C 238.5,281.167 238.5,281.833 238.5,282.5C 228.823,292.845 219.49,303.512 210.5,314.5C 205.894,312.474 201.228,310.807 196.5,309.5C 208.793,294.872 221.793,280.872 235.5,267.5 Z"/></g>
<g><path style="opacity:1" fill="#e891cb" d="M 249.5,269.5 C 250.167,269.833 250.833,270.167 251.5,270.5C 254.167,273.5 256.833,276.5 259.5,279.5C 258.504,279.414 257.671,279.748 257,280.5C 253.599,285.577 250.599,290.911 248,296.5C 246.629,298.041 245.129,299.375 243.5,300.5C 242.123,294.312 240.456,288.312 238.5,282.5C 238.5,281.833 238.5,281.167 238.5,280.5C 239.117,280.611 239.617,280.944 240,281.5C 241.333,280.167 242.667,278.833 244,277.5C 245.306,274.379 247.14,271.713 249.5,269.5 Z"/></g>
<g><path style="opacity:0.945" fill="#e9a6d7" d="M 274.5,276.5 C 274.196,277.15 273.863,277.817 273.5,278.5C 277.938,278.439 280.271,280.606 280.5,285C 278.608,288.429 276.941,291.929 275.5,295.5C 271.167,290.833 266.833,286.167 262.5,281.5C 266.277,279.278 270.277,277.611 274.5,276.5 Z"/></g>
<g><path style="opacity:0.964" fill="#e78bc3" d="M 259.5,279.5 C 260.5,280.167 261.5,280.833 262.5,281.5C 266.833,286.167 271.167,290.833 275.5,295.5C 275.389,296.117 275.056,296.617 274.5,297C 269.593,298.622 265.926,297.288 263.5,293C 260.366,292.21 257.366,292.543 254.5,294C 254.377,298.052 254.21,302.219 254,306.5C 251.847,309.49 249.013,311.49 245.5,312.5C 245.152,308.443 244.486,304.443 243.5,300.5C 245.129,299.375 246.629,298.041 248,296.5C 250.599,290.911 253.599,285.577 257,280.5C 257.671,279.748 258.504,279.414 259.5,279.5 Z"/></g>
<g><path style="opacity:0.98" fill="#e47bb7" d="M 238.5,282.5 C 240.456,288.312 242.123,294.312 243.5,300.5C 244.486,304.443 245.152,308.443 245.5,312.5C 239.235,314.814 232.902,316.48 226.5,317.5C 222.5,317.5 218.5,317.5 214.5,317.5C 212.924,316.857 211.59,315.857 210.5,314.5C 219.49,303.512 228.823,292.845 238.5,282.5 Z"/></g>
<g><path style="opacity:0.907" fill="#e89ad2" d="M 143.5,289.5 C 142.035,295.752 141.035,302.086 140.5,308.5C 139.539,310.265 139.205,312.265 139.5,314.5C 132.971,313.825 129.304,310.158 128.5,303.5C 129.005,300.812 130.338,298.645 132.5,297C 136.195,294.49 139.862,291.99 143.5,289.5 Z"/></g>
<g><path style="opacity:0.864" fill="#e89ad0" d="M 74.5,291.5 C 70.1747,295.604 66.1747,300.104 62.5,305C 58.0375,307.3 53.7042,309.8 49.5,312.5C 47.9462,310.067 47.2796,307.4 47.5,304.5C 50.1667,303.167 52.8333,301.833 55.5,300.5C 61.7077,297.229 68.0411,294.229 74.5,291.5 Z"/></g>
<g><path style="opacity:0.776" fill="#e78ecc" d="M 166.5,304.5 C 165.119,308.049 163.119,311.216 160.5,314C 158.26,314.977 155.927,315.477 153.5,315.5C 157.196,311.142 161.53,307.475 166.5,304.5 Z"/></g>
</svg>
